<svg xmlns="http://www.w3.org/2000/svg" xmlns:oryx="http://oryx-editor.org" id="_1184A4B5-3E97-4475-97C2-1E14E7F5D2C8" width="731" height="371" xmlns:xlink="http://www.w3.org/1999/xlink" xmlns:svg="http://www.w3.org/2000/svg"><defs><marker id="_AE97F55C-6A2A-44B4-A844-A62E136EC30Astart" refX="1" refY="5" markerUnits="userSpaceOnUse" markerWidth="17" markerHeight="11" orient="auto" fill="#000000" stroke="#000000"> 	  		<path id="_AE97F55C-6A2A-44B4-A844-A62E136EC30Aconditional" d="M 0 5 L 8 0 L 16 5 L 8 10 L 0 5" fill="white" stroke="#000000" stroke-width="1" display="none"/> 			<path id="_AE97F55C-6A2A-44B4-A844-A62E136EC30Adefault" d="M 5 0 L 11 10" fill="white" stroke="#000000" stroke-width="1" display="none"/> 	  	</marker><marker id="_AE97F55C-6A2A-44B4-A844-A62E136EC30Aend" refX="15" refY="6" markerUnits="userSpaceOnUse" markerWidth="15" markerHeight="12" orient="auto" fill="#000000" stroke="#000000"> 	  		<path id="_AE97F55C-6A2A-44B4-A844-A62E136EC30Aframe2" d="M 0 1 L 15 6 L 0 11z" fill="#000000" stroke="#000000" stroke-linejoin="round" stroke-width="2"/> 	  	</marker><marker id="_FE23742E-BFAB-42B6-BFC3-8A9AA71A4340start" refX="1" refY="5" markerUnits="userSpaceOnUse" markerWidth="17" markerHeight="11" orient="auto" fill="#000000" stroke="#000000"> 	  		<path id="_FE23742E-BFAB-42B6-BFC3-8A9AA71A4340conditional" d="M 0 5 L 8 0 L 16 5 L 8 10 L 0 5" fill="white" stroke="#000000" stroke-width="1" display="none"/> 			<path id="_FE23742E-BFAB-42B6-BFC3-8A9AA71A4340default" d="M 5 0 L 11 10" fill="white" stroke="#000000" stroke-width="1" display="none"/> 	  	</marker><marker id="_FE23742E-BFAB-42B6-BFC3-8A9AA71A4340end" refX="15" refY="6" markerUnits="userSpaceOnUse" markerWidth="15" markerHeight="12" orient="auto" fill="#000000" stroke="#000000"> 	  		<path id="_FE23742E-BFAB-42B6-BFC3-8A9AA71A4340frame2" d="M 0 1 L 15 6 L 0 11z" fill="#000000" stroke="#000000" stroke-linejoin="round" stroke-width="2"/> 	  	</marker></defs><g stroke="none" font-family="Verdana, sans-serif" font-size-adjust="none" font-style="normal" font-variant="normal" font-weight="normal" line-heigth="normal" font-size="12"><g class="stencils" transform="translate(25, 25)"><g class="me"/><g class="children"><g id="_62A66CB4-96AD-4099-9E93-99D661BD3A65" bpmn2nodeid="_00983327-8882-4493-B862-1EDB9518CAB7"><g class="stencils" transform="translate(0, 0)"><g class="me"><g pointer-events="painted" id="_62A66CB4-96AD-4099-9E93-99D661BD3A65">         <defs id="_62A66CB4-96AD-4099-9E93-99D661BD3A65__62A66CB4-96AD-4099-9E93-99D661BD3A65_3"> 		<radialGradient id="_62A66CB4-96AD-4099-9E93-99D661BD3A65background" cx="0%" cy="10%" r="100%" fx="20%" fy="10%"> 			<stop offset="0%" stop-color="#ffffff" stop-opacity="1" id="_62A66CB4-96AD-4099-9E93-99D661BD3A65__62A66CB4-96AD-4099-9E93-99D661BD3A65_4"/> 			<stop id="_62A66CB4-96AD-4099-9E93-99D661BD3A65fill_el" offset="100%" stop-color="#ffffff" stop-opacity="1"/> 		</radialGradient> 	</defs> 	   	 	<rect id="_62A66CB4-96AD-4099-9E93-99D661BD3A65border" oryx:resize="vertical horizontal" x="0" y="0" width="681" height="171" stroke="#000000" stroke-width="1" fill="url(#_62A66CB4-96AD-4099-9E93-99D661BD3A65background) white"/> 	 	 	 	<path id="_62A66CB4-96AD-4099-9E93-99D661BD3A65frame2" style="fill:none;stroke-width:1" d=" M0 0  L0 171 " oryx:anchors="left top bottom" stroke="#000000"/> 	 	undefined 	     <text x="50" y="85.5" oryx:rotate="270" font-size="12" id="_62A66CB4-96AD-4099-9E93-99D661BD3A65text_name" oryx:align="middle center" oryx:anchors="left" oryx:fittoelem="frame" stroke="black" stroke-width="0pt" letter-spacing="-0.01px" fill="#000000" text-anchor="middle" transform="rotate(270 50 85.5)" visibility="inherit" oryx:fontSize="12"><tspan x="50" y="85.5" dy="5">Archivista</tspan></text>   </g></g><g class="children" style="overflow:hidden"><g id="_DA1C2A0A-E0BE-4A21-8208-B90C3A7FBC55" bpmn2nodeid="_9A6C1AC7-7338-474D-B348-0E16369AAB81"><g class="stencils" transform="translate(160, 60)"><g class="me"><g pointer-events="fill" oryx:minimumSize="50 40" id="_DA1C2A0A-E0BE-4A21-8208-B90C3A7FBC55">   	<defs id="_DA1C2A0A-E0BE-4A21-8208-B90C3A7FBC55__DA1C2A0A-E0BE-4A21-8208-B90C3A7FBC55_17"> 		<radialGradient id="_DA1C2A0A-E0BE-4A21-8208-B90C3A7FBC55background" cx="10%" cy="10%" r="100%" fx="10%" fy="10%"> 			<stop offset="0%" stop-color="#ffffff" stop-opacity="1" id="_DA1C2A0A-E0BE-4A21-8208-B90C3A7FBC55__DA1C2A0A-E0BE-4A21-8208-B90C3A7FBC55_18"/> 			<stop id="_DA1C2A0A-E0BE-4A21-8208-B90C3A7FBC55fill_el" offset="100%" stop-color="#fafad2" stop-opacity="1"/> 		</radialGradient> 		<radialGradient id="_DA1C2A0A-E0BE-4A21-8208-B90C3A7FBC55borderbackground" cx="10%" cy="10%" r="100%" fx="10%" fy="10%"> 			<stop offset="0%" stop-color="#ffffff" stop-opacity="1" id="_DA1C2A0A-E0BE-4A21-8208-B90C3A7FBC55__DA1C2A0A-E0BE-4A21-8208-B90C3A7FBC55_19"/> 			<stop id="_DA1C2A0A-E0BE-4A21-8208-B90C3A7FBC55fill_border" offset="100%" stop-color="#000000" stop-opacity="1" stroke="#000000"/> 		</radialGradient> 	</defs> 	 	<rect id="_DA1C2A0A-E0BE-4A21-8208-B90C3A7FBC55text_frame" oryx:anchors="bottom top right left" x="1" y="1" width="104" height="49" rx="10" ry="10" stroke="none" stroke-width="0" fill="none"/> 	<rect id="_DA1C2A0A-E0BE-4A21-8208-B90C3A7FBC55bg_frame" oryx:resize="vertical horizontal" x="0" y="0" width="110.00000000000001" height="50" rx="10" ry="10" stroke="#000000" stroke-width="1" fill="url(#_DA1C2A0A-E0BE-4A21-8208-B90C3A7FBC55background) #ffffcc"/> 		<text font-size="12" id="_DA1C2A0A-E0BE-4A21-8208-B90C3A7FBC55text_name" x="55.00000000000001" y="25" oryx:align="middle center" oryx:fittoelem="text_frame" stroke="black" text-anchor="middle" stroke-width="0pt" letter-spacing="-0.01px" fill="#000000" transform="rotate(0 55.00000000000001 25)" visibility="inherit" oryx:fontSize="12"><tspan x="55.00000000000001" y="25" dy="-7">Gestionar </tspan><tspan x="55.00000000000001" y="25" dy="5">unidades </tspan><tspan x="55.00000000000001" y="25" dy="17" id="ext-gen607">documentales</tspan></text>     <g id="_DA1C2A0A-E0BE-4A21-8208-B90C3A7FBC55manualTask" transform="scale(0.7,0.7) translate(8,8)" display="none">     	<path oryx:anchors="top left" id="_DA1C2A0A-E0BE-4A21-8208-B90C3A7FBC55frame" style="opacity:1;fill:none;fill-opacity:1;stroke-width:1" d="M0.5,3.751l4.083-3.25c0,0,11.166,0.083,12.083,0.083s-2.417,2.917-1.5,2.917     s11.667,0,12.584,0c1.166,1.708-0.168,3.167-0.834,3.667s0.875,1.917-1,4.417c-0.75,0.25,0.75,1.875-1.333,3.333     c-1.167,0.583,0.583,1.542-1.25,2.833c-1.167,0-20.833,0.083-20.833,0.083l-2-1.333V3.751z" stroke="#000000"/> 		<path id="_DA1C2A0A-E0BE-4A21-8208-B90C3A7FBC55frame2" oryx:anchors="top left" style="opacity:1;fill:none;stroke-width:2" d="M 13.5 7 L 27 7" stroke="#000000"/> 		<path id="_DA1C2A0A-E0BE-4A21-8208-B90C3A7FBC55frame3" oryx:anchors="top left" style="opacity:1;fill:none;stroke-width:2" d="M 13.5 11 L 26 11" stroke="#000000"/> 		<path id="_DA1C2A0A-E0BE-4A21-8208-B90C3A7FBC55frame4" oryx:anchors="top left" style="opacity:1;fill:none;stroke-width:1.5" d="M 14 14.5 L 25 14.5" stroke="#000000"/> 		<path id="_DA1C2A0A-E0BE-4A21-8208-B90C3A7FBC55frame5" oryx:anchors="top left" style="opacity:1;fill:none;stroke-width:1.5" d="M 8.2 3.1 L 15 3.1" stroke="#000000"/> 	</g> 	 	<g id="_DA1C2A0A-E0BE-4A21-8208-B90C3A7FBC55businessRuleTask" transform="scale(0.7,0.7) translate(8,8)" display="none"> 		<rect id="_DA1C2A0A-E0BE-4A21-8208-B90C3A7FBC55frame6" oryx:anchors="top left" x="0" y="0" width="22" height="4" style="opacity:1;fill:#B3B1B3;fill-opacity:1;" stroke="#000000"/> 		<rect id="_DA1C2A0A-E0BE-4A21-8208-B90C3A7FBC55frame7" oryx:anchors="top left" x="0" y="4" style="opacity:1;fill:none;" width="22" height="12" stroke="#000000"/> 		<path id="_DA1C2A0A-E0BE-4A21-8208-B90C3A7FBC55frame8" oryx:anchors="top left" style="opacity:1;fill:none;" d="M 0 10 L 22 10" stroke="#000000"/> 		<path id="_DA1C2A0A-E0BE-4A21-8208-B90C3A7FBC55frame9" oryx:anchors="top left" style="opacity:1; fill:none;" d="M 7 4 L 7 16" stroke="#000000"/> 	</g> 	 	<g id="_DA1C2A0A-E0BE-4A21-8208-B90C3A7FBC55scriptTask" transform="scale(0.7,0.7) translate(8,8)" display="none"> 		<path oryx:anchors="top left" id="_DA1C2A0A-E0BE-4A21-8208-B90C3A7FBC55frame10" style="opacity:1;fill:none;" stroke="#000000" d="M6.402,0.5h14.5c0,0-5.833,2.833-5.833,5.583s4.417,6,4.417,9.167    s-4.167,5.083-4.167,5.083H0.235c0,0,5-2.667,5-5s-4.583-6.75-4.583-9.25S6.402,0.5,6.402,0.5z"/> 		<path oryx:anchors="top left" id="_DA1C2A0A-E0BE-4A21-8208-B90C3A7FBC55frame11" style="opacity:1;fill:none;stroke-width:1.5" d="M 3.5 4.5 L 13.5 4.5" stroke="#000000"/> 		<path oryx:anchors="top left" id="_DA1C2A0A-E0BE-4A21-8208-B90C3A7FBC55frame12" style="opacity:1;fill:none;stroke-width:1.5" d="M 3.8 8.5 L 13.8 8.5" stroke="#000000"/> 		<path oryx:anchors="top left" id="_DA1C2A0A-E0BE-4A21-8208-B90C3A7FBC55frame13" style="opacity:1;fill:none;stroke-width:1.5" d="M 6.3 12.5 L 16.3 12.5" stroke="#000000"/> 		<path oryx:anchors="top left" id="_DA1C2A0A-E0BE-4A21-8208-B90C3A7FBC55frame14" style="opacity:1;fill:none;stroke-width:1.5" d="M 6.5 16.5 L 16.5 16.5" stroke="#000000"/> 	</g> 	 	<g id="_DA1C2A0A-E0BE-4A21-8208-B90C3A7FBC55userTask" transform="scale(0.7,0.7) translate(8,8)" display="inherit"> 		<path id="_DA1C2A0A-E0BE-4A21-8208-B90C3A7FBC55frame15" oryx:anchors="top left" style="opacity:1;fill:#F4F6F7" stroke="#000000" d="M0.585,24.167h24.083v-7.833c0,0-2.333-3.917-7.083-5.167h-9.25    c-4.417,1.333-7.833,5.75-7.833,5.75L0.585,24.167z"/> 		<path id="_DA1C2A0A-E0BE-4A21-8208-B90C3A7FBC55frame16" oryx:anchors="top left" style="opacity:1;fill:none" d="M 6 20 L 6 24" stroke="#000000"/> 		<path id="_DA1C2A0A-E0BE-4A21-8208-B90C3A7FBC55frame17" oryx:anchors="top left" style="opacity:1;fill:none" d="M 20 20 L 20 24" stroke="#000000"/> 		<circle id="_DA1C2A0A-E0BE-4A21-8208-B90C3A7FBC55frame18" oryx:anchors="top left" fill="black" cx="13.002" cy="5.916" r="5.417" stroke="#000000"/> 		<path id="_DA1C2A0A-E0BE-4A21-8208-B90C3A7FBC55frame19" oryx:anchors="top left" style="opacity:1;fill:#F0EFF0;" stroke="#000000" d="M8.043,7.083c0,0,2.814-2.426,5.376-1.807s4.624-0.693,4.624-0.693    c0.25,1.688,0.042,3.75-1.458,5.584c0,0,1.083,0.75,1.083,1.5s0.125,1.875-1,3s-5.5,1.25-6.75,0S8.668,12.834,8.668,12    s0.583-1.25,1.25-1.917C8.835,9.5,7.419,7.708,8.043,7.083z"/> 	</g> 	 	<g id="_DA1C2A0A-E0BE-4A21-8208-B90C3A7FBC55serviceTask" transform="scale(0.7,0.7) translate(8,8)" display="none"> 		<polygon oryx:anchors="top left" id="_DA1C2A0A-E0BE-4A21-8208-B90C3A7FBC55frame20" style="opacity:1;fill:#ffffff" stroke="#000000" points="15.392,5.064 17.954,2.502 20.347,4.895 17.786,7.455     18.729,9.732 22.353,9.732 22.353,13.115 18.731,13.115 17.788,15.392 20.351,17.955 17.958,20.347 15.397,17.786 13.12,18.729     13.12,22.353 9.737,22.353 9.737,18.731 7.46,17.788 4.897,20.35 2.506,17.958 5.066,15.397 4.124,13.12 0.5,13.12 0.5,9.737     4.121,9.737 5.065,7.461 2.503,4.898 4.895,2.506 7.455,5.066 9.732,4.125 9.732,0.5 13.116,0.5 13.116,4.121 "/> 		<circle oryx:anchors="top left" id="_DA1C2A0A-E0BE-4A21-8208-B90C3A7FBC55frame21" style="opacity:1;fill:none" stroke="#000000" cx="11.427" cy="11.426" r="3.714"/> 		<polygon oryx:anchors="top left" id="_DA1C2A0A-E0BE-4A21-8208-B90C3A7FBC55frame22" style="opacity:1;fill:#ffffff" stroke="#000000" points="21.392,11.064 23.954,8.502 26.347,10.895 23.786,13.455     24.729,15.732 28.353,15.732 28.353,19.115 24.731,19.115 23.788,21.392 26.351,23.955 23.958,26.347 21.397,23.786 19.12,24.729     19.12,28.353 15.737,28.353 15.737,24.731 13.46,23.788 10.897,26.35 8.506,23.958 11.066,21.397 10.124,19.12 6.5,19.12     6.5,15.737 10.121,15.737 11.065,13.461 8.503,10.898 10.895,8.506 13.455,11.066 15.732,10.125 15.732,6.5 19.116,6.5     19.116,10.121 "/> 		<circle oryx:anchors="top left" id="_DA1C2A0A-E0BE-4A21-8208-B90C3A7FBC55frame23" style="opacity:1;fill:none;" stroke="#000000" cx="17.427" cy="17.426" r="3.714"/> 	</g> 	 	<g id="_DA1C2A0A-E0BE-4A21-8208-B90C3A7FBC55sendTask" display="none"> 		<path id="_DA1C2A0A-E0BE-4A21-8208-B90C3A7FBC55stframe24" oryx:anchors="left top" stroke="#FFFFFF" fill="black" stroke-width="1" d="M8,11 L8,21 L24,21 L24,11 L16,17z"/> 		<path id="_DA1C2A0A-E0BE-4A21-8208-B90C3A7FBC55stframe25" oryx:anchors="left top" stroke="#FFFFFF" fill="black" stroke-width="1" d="M7,10 L16,17 L25 10z"/> 	</g> 	 	<g id="_DA1C2A0A-E0BE-4A21-8208-B90C3A7FBC55receiveTask" display="none"> 		<path id="_DA1C2A0A-E0BE-4A21-8208-B90C3A7FBC55frame26" oryx:anchors="left top" stroke="#000000" fill="none" stroke-width="1" d="M8,11 L8,21 L24,21 L24,11z M8,11 L16,17 L24,11"/> 	</g> 	 	<g id="_DA1C2A0A-E0BE-4A21-8208-B90C3A7FBC55none" display="inherit"/>  	<g id="_DA1C2A0A-E0BE-4A21-8208-B90C3A7FBC55sequential" display="none">         <path oryx:anchors="bottom" fill="none" stroke="#000000" stroke-width="2" d=" M51.1 46  h10  M51.1 42  h10  M51.1 38  h10 " id="_DA1C2A0A-E0BE-4A21-8208-B90C3A7FBC55__DA1C2A0A-E0BE-4A21-8208-B90C3A7FBC55_20"/>     </g>   </g></g><g class="children" style="overflow:hidden"/><g class="edge"/></g><g class="controls"><g class="dockers"/><g class="magnets" transform="translate(160, 60)"><g pointer-events="all" display="none" transform="translate(-7, 4.5)"><circle cx="8" cy="8" r="4" stroke="none" fill="red" fill-opacity="0.3"/></g><g pointer-events="all" display="none" transform="translate(-7, 17)"><circle cx="8" cy="8" r="4" stroke="none" fill="red" fill-opacity="0.3"/></g><g pointer-events="all" display="none" transform="translate(-7, 29.5)"><circle cx="8" cy="8" r="4" stroke="none" fill="red" fill-opacity="0.3"/></g><g pointer-events="all" display="none" transform="translate(19.500000000000004, 41)"><circle cx="8" cy="8" r="4" stroke="none" fill="red" fill-opacity="0.3"/></g><g pointer-events="all" display="none" transform="translate(47.00000000000001, 41)"><circle cx="8" cy="8" r="4" stroke="none" fill="red" fill-opacity="0.3"/></g><g pointer-events="all" display="none" transform="translate(74.5, 41)"><circle cx="8" cy="8" r="4" stroke="none" fill="red" fill-opacity="0.3"/></g><g pointer-events="all" display="none" transform="translate(101, 4.5)"><circle cx="8" cy="8" r="4" stroke="none" fill="red" fill-opacity="0.3"/></g><g pointer-events="all" display="none" transform="translate(101, 17)"><circle cx="8" cy="8" r="4" stroke="none" fill="red" fill-opacity="0.3"/></g><g pointer-events="all" display="none" transform="translate(101, 29.5)"><circle cx="8" cy="8" r="4" stroke="none" fill="red" fill-opacity="0.3"/></g><g pointer-events="all" display="none" transform="translate(19.500000000000004, -7)"><circle cx="8" cy="8" r="4" stroke="none" fill="red" fill-opacity="0.3"/></g><g pointer-events="all" display="none" transform="translate(47.00000000000001, -7)"><circle cx="8" cy="8" r="4" stroke="none" fill="red" fill-opacity="0.3"/></g><g pointer-events="all" display="none" transform="translate(74.5, -7)"><circle cx="8" cy="8" r="4" stroke="none" fill="red" fill-opacity="0.3"/></g><g pointer-events="all" display="none" transform="translate(47.00000000000001, 17)"><circle cx="8" cy="8" r="4" stroke="none" fill="red" fill-opacity="0.3"/></g></g></g></g><g id="_5AE42FBC-C5B9-41D1-9566-B864E00A9B55" bpmn2nodeid="_6BB5A65B-A2DE-42B0-8C41-5935656EFC08"><g class="stencils" transform="translate(43, 70)"><g class="me"><g pointer-events="fill" id="_5AE42FBC-C5B9-41D1-9566-B864E00A9B55">        <defs id="_5AE42FBC-C5B9-41D1-9566-B864E00A9B55__5AE42FBC-C5B9-41D1-9566-B864E00A9B55_5"> 		<radialGradient id="_5AE42FBC-C5B9-41D1-9566-B864E00A9B55background" cx="10%" cy="10%" r="100%" fx="10%" fy="10%"> 			<stop offset="0%" stop-color="#ffffff" stop-opacity="1" id="_5AE42FBC-C5B9-41D1-9566-B864E00A9B55__5AE42FBC-C5B9-41D1-9566-B864E00A9B55_6"/> 			<stop id="_5AE42FBC-C5B9-41D1-9566-B864E00A9B55fill_el" offset="100%" stop-color="#9acd32" stop-opacity="1"/> 		</radialGradient> 	</defs> 	     <circle id="_5AE42FBC-C5B9-41D1-9566-B864E00A9B55bg_frame" cx="15" cy="15" r="15" stroke="#000000" fill="url(#_5AE42FBC-C5B9-41D1-9566-B864E00A9B55background) white" stroke-width="1" style="stroke-dasharray: 5.5, 3"/>      <circle id="_5AE42FBC-C5B9-41D1-9566-B864E00A9B55frame" cx="15" cy="15" r="15" stroke="#000000" fill="none" stroke-width="1" display="inherit"/>  	<text font-size="11" id="_5AE42FBC-C5B9-41D1-9566-B864E00A9B55text_name" x="15" y="32" oryx:align="top center" stroke="black" stroke-width="0pt" letter-spacing="-0.01px" fill="#000000" text-anchor="middle" transform="rotate(0 15 32)" visibility="inherit" oryx:fontSize="11"><tspan x="15" y="32" dy="11">Inicio</tspan></text>   </g></g><g class="children" style="overflow:hidden"/><g class="edge"/></g><g class="controls"><g class="dockers"/><g class="magnets" transform="translate(43, 70)"><g pointer-events="all" display="none" transform="translate(7, 7)"><circle cx="8" cy="8" r="4" stroke="none" fill="red" fill-opacity="0.3"/></g></g></g></g></g><g class="edge"/></g><g class="controls"><g class="dockers"/><g class="magnets" transform="translate(0, 0)"><g pointer-events="all" display="none" transform="translate(332.5, 77.5)"><circle cx="8" cy="8" r="4" stroke="none" fill="red" fill-opacity="0.3"/></g></g></g></g><g id="_87901BA3-1091-47DB-A770-8188C2A52836" bpmn2nodeid="_BB367D34-A11A-4594-8529-69225637E95B"><g class="stencils" transform="translate(0, 180)"><g class="me"><g pointer-events="painted" id="_87901BA3-1091-47DB-A770-8188C2A52836">         <defs id="_87901BA3-1091-47DB-A770-8188C2A52836__87901BA3-1091-47DB-A770-8188C2A52836_3"> 		<radialGradient id="_87901BA3-1091-47DB-A770-8188C2A52836background" cx="0%" cy="10%" r="100%" fx="20%" fy="10%"> 			<stop offset="0%" stop-color="#ffffff" stop-opacity="1" id="_87901BA3-1091-47DB-A770-8188C2A52836__87901BA3-1091-47DB-A770-8188C2A52836_4"/> 			<stop id="_87901BA3-1091-47DB-A770-8188C2A52836fill_el" offset="100%" stop-color="#ffffff" stop-opacity="1"/> 		</radialGradient> 	</defs> 	   	 	<rect id="_87901BA3-1091-47DB-A770-8188C2A52836border" oryx:resize="vertical horizontal" x="0" y="0" width="681" height="141" stroke="#000000" stroke-width="1" fill="url(#_87901BA3-1091-47DB-A770-8188C2A52836background) white"/> 	 	 	 	<path id="_87901BA3-1091-47DB-A770-8188C2A52836frame2" style="fill:none;stroke-width:1" d=" M0 0  L0 141 " oryx:anchors="left top bottom" stroke="#000000"/> 	 	undefined 	     <text x="50" y="70.5" oryx:rotate="270" font-size="12" id="_87901BA3-1091-47DB-A770-8188C2A52836text_name" oryx:align="middle center" oryx:anchors="left" oryx:fittoelem="frame" stroke="black" stroke-width="0pt" letter-spacing="-0.01px" fill="#000000" text-anchor="middle" transform="rotate(270 50 70.5)" visibility="inherit" oryx:fontSize="12"><tspan x="50" y="70.5" dy="5">Sistema</tspan></text>   </g></g><g class="children" style="overflow:hidden"><g id="_CDDCF4C1-A4FA-4380-85BE-E29BBECCAAB6" bpmn2nodeid="_AF577ED2-5715-4EC7-A056-F79787FD3EA8"><g class="stencils" transform="translate(489, 60)"><g class="me"><g pointer-events="fill" id="_CDDCF4C1-A4FA-4380-85BE-E29BBECCAAB6">      <defs id="_CDDCF4C1-A4FA-4380-85BE-E29BBECCAAB6__CDDCF4C1-A4FA-4380-85BE-E29BBECCAAB6_5"> 		<radialGradient id="_CDDCF4C1-A4FA-4380-85BE-E29BBECCAAB6background" cx="10%" cy="10%" r="100%" fx="10%" fy="10%"> 			<stop offset="0%" stop-color="#ffffff" stop-opacity="1" id="_CDDCF4C1-A4FA-4380-85BE-E29BBECCAAB6__CDDCF4C1-A4FA-4380-85BE-E29BBECCAAB6_6"/> 			<stop id="_CDDCF4C1-A4FA-4380-85BE-E29BBECCAAB6fill_el" offset="100%" stop-color="#ff6347" stop-opacity="1"/> 		</radialGradient> 	</defs> 	     <circle id="_CDDCF4C1-A4FA-4380-85BE-E29BBECCAAB6bg_frame" cx="14" cy="14" r="14" stroke="#000000" fill="url(#_CDDCF4C1-A4FA-4380-85BE-E29BBECCAAB6background) white" stroke-width="3"/> 	<text font-size="11" id="_CDDCF4C1-A4FA-4380-85BE-E29BBECCAAB6text_name" x="14" y="30" oryx:align="top center" stroke="black" stroke-width="0pt" letter-spacing="-0.01px" fill="#000000" text-anchor="middle" transform="rotate(0 14 30)" visibility="inherit" oryx:fontSize="11"><tspan x="14" y="30" dy="11">Fin</tspan></text>   </g></g><g class="children" style="overflow:hidden"/><g class="edge"/></g><g class="controls"><g class="dockers"/><g class="magnets" transform="translate(489, 60)"><g pointer-events="all" display="none" transform="translate(6, 6)"><circle cx="8" cy="8" r="4" stroke="none" fill="red" fill-opacity="0.3"/></g></g></g></g></g><g class="edge"/></g><g class="controls"><g class="dockers"/><g class="magnets" transform="translate(0, 180)"><g pointer-events="all" display="none" transform="translate(332.5, 62.5)"><circle cx="8" cy="8" r="4" stroke="none" fill="red" fill-opacity="0.3"/></g></g></g></g></g><g class="edge"><g id="_AE97F55C-6A2A-44B4-A844-A62E136EC30A" bpmn2nodeid="_A546B304-B53D-4D7B-8D3C-65D5F2387A7D"><g class="stencils"><g class="me"><g pointer-events="painted" bpmn2nodeid="_FD42CCFA-6E0C-40FC-85AF-C7E45E8B021D"><path id="_AE97F55C-6A2A-44B4-A844-A62E136EC30A_1" d="M73.71875 85L159.41796875 85 " stroke="#000000" fill="none" stroke-width="2" stroke-linecap="round" stroke-linejoin="round" marker-start="url(#_AE97F55C-6A2A-44B4-A844-A62E136EC30Astart)" marker-end="url(#_AE97F55C-6A2A-44B4-A844-A62E136EC30Aend)"/></g><text id="_AE97F55C-6A2A-44B4-A844-A62E136EC30Atext_name" font-size="12" x="87.71875" y="71" oryx:edgePosition="startTop" stroke-width="0pt" letter-spacing="-0.01px" fill="#000000" text-anchor="start" transform="rotate(360 73.71875 85)" visibility="inherit" oryx:fontSize="12"/></g><g class="children" style="overflow:hidden"/><g class="edge"/></g><g class="controls"><g class="dockers"/><g class="magnets"/></g></g><g id="_FE23742E-BFAB-42B6-BFC3-8A9AA71A4340" bpmn2nodeid="_495309E4-B785-430E-A752-654641C3AF2C"><g class="stencils"><g class="me"><g pointer-events="painted" bpmn2nodeid="_BD79B09D-E97B-458A-9739-739310D6B6BD"><path id="_FE23742E-BFAB-42B6-BFC3-8A9AA71A4340_1" d="M270.5625 85L503 85 L503 239.796875 " stroke="#000000" fill="none" stroke-width="2" stroke-linecap="round" stroke-linejoin="round" marker-start="url(#_FE23742E-BFAB-42B6-BFC3-8A9AA71A4340start)" marker-end="url(#_FE23742E-BFAB-42B6-BFC3-8A9AA71A4340end)"/></g><text id="_FE23742E-BFAB-42B6-BFC3-8A9AA71A4340text_name" font-size="12" x="284.5625" y="71" oryx:edgePosition="startTop" stroke-width="0pt" letter-spacing="-0.01px" fill="#000000" text-anchor="start" transform="rotate(360 270.5625 85)" visibility="inherit" oryx:fontSize="12"/></g><g class="children" style="overflow:hidden"/><g class="edge"/></g><g class="controls"><g class="dockers"/><g class="magnets"/></g></g></g><text id="_75351AF5-7F0F-4C45-909E-67BC06C009DC" style="stroke-width:1;fill:rgb(177,194,214);font-family:arial;font-weight:bold" font-size="12" onclick="ORYX.Plugins.CanvasTitle.openTextualAnalysis()" onmouseover="ORYX.Plugins.CanvasTitle.addToolTip('_75351AF5-7F0F-4C45-909E-67BC06C009DC')" transform="translate(10, 20)">gestion-unidades-documentales v.1.0 (proceso.gestion-unidades-documentales)</text></g></g></svg>