<svg xmlns="http://www.w3.org/2000/svg" xmlns:oryx="http://oryx-editor.org" id="_DE4AD8AA-1F70-4824-B124-4612794841E1" width="711" height="232" xmlns:xlink="http://www.w3.org/1999/xlink" xmlns:svg="http://www.w3.org/2000/svg"><defs><marker id="_E1778E65-EBE9-4673-B7AA-67EF21AEB533start" refX="1" refY="5" markerUnits="userSpaceOnUse" markerWidth="17" markerHeight="11" orient="auto" fill="#000000" stroke="#000000"> 	  		<path id="_E1778E65-EBE9-4673-B7AA-67EF21AEB533conditional" d="M 0 5 L 8 0 L 16 5 L 8 10 L 0 5" fill="white" stroke="#000000" stroke-width="1" display="none"/> 			<path id="_E1778E65-EBE9-4673-B7AA-67EF21AEB533default" d="M 5 0 L 11 10" fill="white" stroke="#000000" stroke-width="1" display="none"/> 	  	</marker><marker id="_E1778E65-EBE9-4673-B7AA-67EF21AEB533end" refX="15" refY="6" markerUnits="userSpaceOnUse" markerWidth="15" markerHeight="12" orient="auto" fill="#000000" stroke="#000000"> 	  		<path id="_E1778E65-EBE9-4673-B7AA-67EF21AEB533frame2" d="M 0 1 L 15 6 L 0 11z" fill="#000000" stroke="#000000" stroke-linejoin="round" stroke-width="2"/> 	  	</marker><marker id="_550B9E04-D0D2-48CB-A22F-62A75CBCACB8start" refX="1" refY="5" markerUnits="userSpaceOnUse" markerWidth="17" markerHeight="11" orient="auto" fill="#000000" stroke="#000000"> 	  		<path id="_550B9E04-D0D2-48CB-A22F-62A75CBCACB8conditional" d="M 0 5 L 8 0 L 16 5 L 8 10 L 0 5" fill="white" stroke="#000000" stroke-width="1" display="none"/> 			<path id="_550B9E04-D0D2-48CB-A22F-62A75CBCACB8default" d="M 5 0 L 11 10" fill="white" stroke="#000000" stroke-width="1" display="none"/> 	  	</marker><marker id="_550B9E04-D0D2-48CB-A22F-62A75CBCACB8end" refX="15" refY="6" markerUnits="userSpaceOnUse" markerWidth="15" markerHeight="12" orient="auto" fill="#000000" stroke="#000000"> 	  		<path id="_550B9E04-D0D2-48CB-A22F-62A75CBCACB8frame2" d="M 0 1 L 15 6 L 0 11z" fill="#000000" stroke="#000000" stroke-linejoin="round" stroke-width="2"/> 	  	</marker></defs><g stroke="none" font-family="Verdana, sans-serif" font-size-adjust="none" font-style="normal" font-variant="normal" font-weight="normal" line-heigth="normal" font-size="12"><g class="stencils" transform="translate(15, 17)"><g class="me"/><g class="children"><g id="_B03A6EB6-1286-41B2-B078-4B610D551D5B" bpmn2nodeid="_23FBA326-86C7-47C1-8EC2-FD906F8E8E7D"><g class="stencils" transform="translate(40, 40)"><g class="me"><g pointer-events="painted" id="_B03A6EB6-1286-41B2-B078-4B610D551D5B">         <defs id="_B03A6EB6-1286-41B2-B078-4B610D551D5B__B03A6EB6-1286-41B2-B078-4B610D551D5B_3"> 		<radialGradient id="_B03A6EB6-1286-41B2-B078-4B610D551D5Bbackground" cx="0%" cy="10%" r="100%" fx="20%" fy="10%"> 			<stop offset="0%" stop-color="#ffffff" stop-opacity="1" id="_B03A6EB6-1286-41B2-B078-4B610D551D5B__B03A6EB6-1286-41B2-B078-4B610D551D5B_4"/> 			<stop id="_B03A6EB6-1286-41B2-B078-4B610D551D5Bfill_el" offset="100%" stop-color="#ffffff" stop-opacity="1"/> 		</radialGradient> 	</defs> 	   	 	<rect id="_B03A6EB6-1286-41B2-B078-4B610D551D5Bborder" oryx:resize="vertical horizontal" x="0" y="0" width="631" height="150" stroke="#000000" stroke-width="1" fill="url(#_B03A6EB6-1286-41B2-B078-4B610D551D5Bbackground) white"/> 	 	 	 	<path id="_B03A6EB6-1286-41B2-B078-4B610D551D5Bframe2" style="fill:none;stroke-width:1" d=" M0 0  L0 150 " oryx:anchors="left top bottom" stroke="#000000"/> 	 	undefined 	     <text x="50" y="75" oryx:rotate="270" font-size="12" id="_B03A6EB6-1286-41B2-B078-4B610D551D5Btext_name" oryx:align="middle center" oryx:anchors="left" oryx:fittoelem="frame" stroke="black" stroke-width="0pt" letter-spacing="-0.01px" fill="#000000" text-anchor="middle" transform="rotate(270 50 75)" visibility="inherit" oryx:fontSize="12"><tspan x="50" y="75" dy="5">Jefe Departamento</tspan></text>   </g></g><g class="children" style="overflow:hidden"><g id="_3950E2DF-7A81-4FB6-B5F7-D39C072D00B0" bpmn2nodeid="_7621912B-B331-4C5A-A3E7-79A8CE0496DC"><g class="stencils" transform="translate(30, 60)"><g class="me"><g pointer-events="fill" id="_3950E2DF-7A81-4FB6-B5F7-D39C072D00B0">        <defs id="_3950E2DF-7A81-4FB6-B5F7-D39C072D00B0__3950E2DF-7A81-4FB6-B5F7-D39C072D00B0_5"> 		<radialGradient id="_3950E2DF-7A81-4FB6-B5F7-D39C072D00B0background" cx="10%" cy="10%" r="100%" fx="10%" fy="10%"> 			<stop offset="0%" stop-color="#ffffff" stop-opacity="1" id="_3950E2DF-7A81-4FB6-B5F7-D39C072D00B0__3950E2DF-7A81-4FB6-B5F7-D39C072D00B0_6"/> 			<stop id="_3950E2DF-7A81-4FB6-B5F7-D39C072D00B0fill_el" offset="100%" stop-color="#9acd32" stop-opacity="1"/> 		</radialGradient> 	</defs> 	     <circle id="_3950E2DF-7A81-4FB6-B5F7-D39C072D00B0bg_frame" cx="15" cy="15" r="15" stroke="#000000" fill="url(#_3950E2DF-7A81-4FB6-B5F7-D39C072D00B0background) white" stroke-width="1" style="stroke-dasharray: 5.5, 3"/>      <circle id="_3950E2DF-7A81-4FB6-B5F7-D39C072D00B0frame" cx="15" cy="15" r="15" stroke="#000000" fill="none" stroke-width="1" display="inherit"/>  	<text font-size="11" id="_3950E2DF-7A81-4FB6-B5F7-D39C072D00B0text_name" x="15" y="32" oryx:align="top center" stroke="black" stroke-width="0pt" letter-spacing="-0.01px" fill="#000000" text-anchor="middle" transform="rotate(0 15 32)" visibility="inherit" oryx:fontSize="11"><tspan x="15" y="32" dy="11">Iniciar</tspan></text>   </g></g><g class="children" style="overflow:hidden"/><g class="edge"/></g><g class="controls"><g class="dockers"/><g class="magnets" transform="translate(30, 60)"><g pointer-events="all" display="none" transform="translate(7, 7)"><circle cx="8" cy="8" r="4" stroke="none" fill="red" fill-opacity="0.3"/></g></g></g></g><g id="_7FED336B-EE7A-48E2-96E5-62BF75E6E14B" bpmn2nodeid="_91F32ECD-B068-4E10-AD75-37BD4637ABAE"><g class="stencils" transform="translate(550, 60)"><g class="me"><g pointer-events="fill" id="_7FED336B-EE7A-48E2-96E5-62BF75E6E14B">      <defs id="_7FED336B-EE7A-48E2-96E5-62BF75E6E14B__7FED336B-EE7A-48E2-96E5-62BF75E6E14B_5"> 		<radialGradient id="_7FED336B-EE7A-48E2-96E5-62BF75E6E14Bbackground" cx="10%" cy="10%" r="100%" fx="10%" fy="10%"> 			<stop offset="0%" stop-color="#ffffff" stop-opacity="1" id="_7FED336B-EE7A-48E2-96E5-62BF75E6E14B__7FED336B-EE7A-48E2-96E5-62BF75E6E14B_6"/> 			<stop id="_7FED336B-EE7A-48E2-96E5-62BF75E6E14Bfill_el" offset="100%" stop-color="#ff6347" stop-opacity="1"/> 		</radialGradient> 	</defs> 	     <circle id="_7FED336B-EE7A-48E2-96E5-62BF75E6E14Bbg_frame" cx="14" cy="14" r="14" stroke="#000000" fill="url(#_7FED336B-EE7A-48E2-96E5-62BF75E6E14Bbackground) white" stroke-width="3"/> 	<text font-size="11" id="_7FED336B-EE7A-48E2-96E5-62BF75E6E14Btext_name" x="14" y="30" oryx:align="top center" stroke="black" stroke-width="0pt" letter-spacing="-0.01px" fill="#000000" text-anchor="middle" transform="rotate(0 14 30)" visibility="inherit" oryx:fontSize="11"><tspan x="14" y="30" dy="11">Finalizar</tspan></text>   </g></g><g class="children" style="overflow:hidden"/><g class="edge"/></g><g class="controls"><g class="dockers"/><g class="magnets" transform="translate(550, 60)"><g pointer-events="all" display="none" transform="translate(6, 6)"><circle cx="8" cy="8" r="4" stroke="none" fill="red" fill-opacity="0.3"/></g></g></g></g><g id="_19D20EFE-7A48-47DC-A3A3-6A68C329B8A8" bpmn2nodeid="_3BCD0E3F-4390-4DC0-9AF9-CD9525D8F09B"><g class="stencils" transform="translate(185, 43.5)"><g class="me"><g pointer-events="fill" oryx:minimumSize="50 40" id="_19D20EFE-7A48-47DC-A3A3-6A68C329B8A8">   	<defs id="_19D20EFE-7A48-47DC-A3A3-6A68C329B8A8__19D20EFE-7A48-47DC-A3A3-6A68C329B8A8_17"> 		<radialGradient id="_19D20EFE-7A48-47DC-A3A3-6A68C329B8A8background" cx="10%" cy="10%" r="100%" fx="10%" fy="10%"> 			<stop offset="0%" stop-color="#ffffff" stop-opacity="1" id="_19D20EFE-7A48-47DC-A3A3-6A68C329B8A8__19D20EFE-7A48-47DC-A3A3-6A68C329B8A8_18"/> 			<stop id="_19D20EFE-7A48-47DC-A3A3-6A68C329B8A8fill_el" offset="100%" stop-color="#fafad2" stop-opacity="1"/> 		</radialGradient> 		<radialGradient id="_19D20EFE-7A48-47DC-A3A3-6A68C329B8A8borderbackground" cx="10%" cy="10%" r="100%" fx="10%" fy="10%"> 			<stop offset="0%" stop-color="#ffffff" stop-opacity="1" id="_19D20EFE-7A48-47DC-A3A3-6A68C329B8A8__19D20EFE-7A48-47DC-A3A3-6A68C329B8A8_19"/> 			<stop id="_19D20EFE-7A48-47DC-A3A3-6A68C329B8A8fill_border" offset="100%" stop-color="#000000" stop-opacity="1" stroke="#000000"/> 		</radialGradient> 	</defs> 	 	<rect id="_19D20EFE-7A48-47DC-A3A3-6A68C329B8A8text_frame" oryx:anchors="bottom top right left" x="1" y="1" width="165" height="62" rx="10" ry="10" stroke="none" stroke-width="0" fill="none"/> 	<rect id="_19D20EFE-7A48-47DC-A3A3-6A68C329B8A8bg_frame" oryx:resize="vertical horizontal" x="0" y="0" width="171" height="63" rx="10" ry="10" stroke="#000000" stroke-width="1" fill="url(#_19D20EFE-7A48-47DC-A3A3-6A68C329B8A8background) #ffffcc"/> 		<text font-size="12" id="_19D20EFE-7A48-47DC-A3A3-6A68C329B8A8text_name" x="85.5" y="31.5" oryx:align="middle center" oryx:fittoelem="text_frame" stroke="black" text-anchor="middle" stroke-width="0pt" letter-spacing="-0.01px" fill="#000000" transform="rotate(0 85.5 31.5)" visibility="inherit" oryx:fontSize="12"><tspan x="85.5" y="31.5" dy="-1" id="ext-gen620">Validar y Asignar </tspan><tspan x="85.5" y="31.5" dy="11">Comunicacion</tspan></text>     <g id="_19D20EFE-7A48-47DC-A3A3-6A68C329B8A8manualTask" transform="scale(0.7,0.7) translate(8,8)" display="none">     	<path oryx:anchors="top left" id="_19D20EFE-7A48-47DC-A3A3-6A68C329B8A8frame" style="opacity:1;fill:none;fill-opacity:1;stroke-width:1" d="M0.5,3.751l4.083-3.25c0,0,11.166,0.083,12.083,0.083s-2.417,2.917-1.5,2.917     s11.667,0,12.584,0c1.166,1.708-0.168,3.167-0.834,3.667s0.875,1.917-1,4.417c-0.75,0.25,0.75,1.875-1.333,3.333     c-1.167,0.583,0.583,1.542-1.25,2.833c-1.167,0-20.833,0.083-20.833,0.083l-2-1.333V3.751z" stroke="#000000"/> 		<path id="_19D20EFE-7A48-47DC-A3A3-6A68C329B8A8frame2" oryx:anchors="top left" style="opacity:1;fill:none;stroke-width:2" d="M 13.5 7 L 27 7" stroke="#000000"/> 		<path id="_19D20EFE-7A48-47DC-A3A3-6A68C329B8A8frame3" oryx:anchors="top left" style="opacity:1;fill:none;stroke-width:2" d="M 13.5 11 L 26 11" stroke="#000000"/> 		<path id="_19D20EFE-7A48-47DC-A3A3-6A68C329B8A8frame4" oryx:anchors="top left" style="opacity:1;fill:none;stroke-width:1.5" d="M 14 14.5 L 25 14.5" stroke="#000000"/> 		<path id="_19D20EFE-7A48-47DC-A3A3-6A68C329B8A8frame5" oryx:anchors="top left" style="opacity:1;fill:none;stroke-width:1.5" d="M 8.2 3.1 L 15 3.1" stroke="#000000"/> 	</g> 	 	<g id="_19D20EFE-7A48-47DC-A3A3-6A68C329B8A8businessRuleTask" transform="scale(0.7,0.7) translate(8,8)" display="none"> 		<rect id="_19D20EFE-7A48-47DC-A3A3-6A68C329B8A8frame6" oryx:anchors="top left" x="0" y="0" width="22" height="4" style="opacity:1;fill:#B3B1B3;fill-opacity:1;" stroke="#000000"/> 		<rect id="_19D20EFE-7A48-47DC-A3A3-6A68C329B8A8frame7" oryx:anchors="top left" x="0" y="4" style="opacity:1;fill:none;" width="22" height="12" stroke="#000000"/> 		<path id="_19D20EFE-7A48-47DC-A3A3-6A68C329B8A8frame8" oryx:anchors="top left" style="opacity:1;fill:none;" d="M 0 10 L 22 10" stroke="#000000"/> 		<path id="_19D20EFE-7A48-47DC-A3A3-6A68C329B8A8frame9" oryx:anchors="top left" style="opacity:1; fill:none;" d="M 7 4 L 7 16" stroke="#000000"/> 	</g> 	 	<g id="_19D20EFE-7A48-47DC-A3A3-6A68C329B8A8scriptTask" transform="scale(0.7,0.7) translate(8,8)" display="none"> 		<path oryx:anchors="top left" id="_19D20EFE-7A48-47DC-A3A3-6A68C329B8A8frame10" style="opacity:1;fill:none;" stroke="#000000" d="M6.402,0.5h14.5c0,0-5.833,2.833-5.833,5.583s4.417,6,4.417,9.167    s-4.167,5.083-4.167,5.083H0.235c0,0,5-2.667,5-5s-4.583-6.75-4.583-9.25S6.402,0.5,6.402,0.5z"/> 		<path oryx:anchors="top left" id="_19D20EFE-7A48-47DC-A3A3-6A68C329B8A8frame11" style="opacity:1;fill:none;stroke-width:1.5" d="M 3.5 4.5 L 13.5 4.5" stroke="#000000"/> 		<path oryx:anchors="top left" id="_19D20EFE-7A48-47DC-A3A3-6A68C329B8A8frame12" style="opacity:1;fill:none;stroke-width:1.5" d="M 3.8 8.5 L 13.8 8.5" stroke="#000000"/> 		<path oryx:anchors="top left" id="_19D20EFE-7A48-47DC-A3A3-6A68C329B8A8frame13" style="opacity:1;fill:none;stroke-width:1.5" d="M 6.3 12.5 L 16.3 12.5" stroke="#000000"/> 		<path oryx:anchors="top left" id="_19D20EFE-7A48-47DC-A3A3-6A68C329B8A8frame14" style="opacity:1;fill:none;stroke-width:1.5" d="M 6.5 16.5 L 16.5 16.5" stroke="#000000"/> 	</g> 	 	<g id="_19D20EFE-7A48-47DC-A3A3-6A68C329B8A8userTask" transform="scale(0.7,0.7) translate(8,8)" display="inherit"> 		<path id="_19D20EFE-7A48-47DC-A3A3-6A68C329B8A8frame15" oryx:anchors="top left" style="opacity:1;fill:#F4F6F7" stroke="#000000" d="M0.585,24.167h24.083v-7.833c0,0-2.333-3.917-7.083-5.167h-9.25    c-4.417,1.333-7.833,5.75-7.833,5.75L0.585,24.167z"/> 		<path id="_19D20EFE-7A48-47DC-A3A3-6A68C329B8A8frame16" oryx:anchors="top left" style="opacity:1;fill:none" d="M 6 20 L 6 24" stroke="#000000"/> 		<path id="_19D20EFE-7A48-47DC-A3A3-6A68C329B8A8frame17" oryx:anchors="top left" style="opacity:1;fill:none" d="M 20 20 L 20 24" stroke="#000000"/> 		<circle id="_19D20EFE-7A48-47DC-A3A3-6A68C329B8A8frame18" oryx:anchors="top left" fill="black" cx="13.002" cy="5.916" r="5.417" stroke="#000000"/> 		<path id="_19D20EFE-7A48-47DC-A3A3-6A68C329B8A8frame19" oryx:anchors="top left" style="opacity:1;fill:#F0EFF0;" stroke="#000000" d="M8.043,7.083c0,0,2.814-2.426,5.376-1.807s4.624-0.693,4.624-0.693    c0.25,1.688,0.042,3.75-1.458,5.584c0,0,1.083,0.75,1.083,1.5s0.125,1.875-1,3s-5.5,1.25-6.75,0S8.668,12.834,8.668,12    s0.583-1.25,1.25-1.917C8.835,9.5,7.419,7.708,8.043,7.083z"/> 	</g> 	 	<g id="_19D20EFE-7A48-47DC-A3A3-6A68C329B8A8serviceTask" transform="scale(0.7,0.7) translate(8,8)" display="none"> 		<polygon oryx:anchors="top left" id="_19D20EFE-7A48-47DC-A3A3-6A68C329B8A8frame20" style="opacity:1;fill:#ffffff" stroke="#000000" points="15.392,5.064 17.954,2.502 20.347,4.895 17.786,7.455     18.729,9.732 22.353,9.732 22.353,13.115 18.731,13.115 17.788,15.392 20.351,17.955 17.958,20.347 15.397,17.786 13.12,18.729     13.12,22.353 9.737,22.353 9.737,18.731 7.46,17.788 4.897,20.35 2.506,17.958 5.066,15.397 4.124,13.12 0.5,13.12 0.5,9.737     4.121,9.737 5.065,7.461 2.503,4.898 4.895,2.506 7.455,5.066 9.732,4.125 9.732,0.5 13.116,0.5 13.116,4.121 "/> 		<circle oryx:anchors="top left" id="_19D20EFE-7A48-47DC-A3A3-6A68C329B8A8frame21" style="opacity:1;fill:none" stroke="#000000" cx="11.427" cy="11.426" r="3.714"/> 		<polygon oryx:anchors="top left" id="_19D20EFE-7A48-47DC-A3A3-6A68C329B8A8frame22" style="opacity:1;fill:#ffffff" stroke="#000000" points="21.392,11.064 23.954,8.502 26.347,10.895 23.786,13.455     24.729,15.732 28.353,15.732 28.353,19.115 24.731,19.115 23.788,21.392 26.351,23.955 23.958,26.347 21.397,23.786 19.12,24.729     19.12,28.353 15.737,28.353 15.737,24.731 13.46,23.788 10.897,26.35 8.506,23.958 11.066,21.397 10.124,19.12 6.5,19.12     6.5,15.737 10.121,15.737 11.065,13.461 8.503,10.898 10.895,8.506 13.455,11.066 15.732,10.125 15.732,6.5 19.116,6.5     19.116,10.121 "/> 		<circle oryx:anchors="top left" id="_19D20EFE-7A48-47DC-A3A3-6A68C329B8A8frame23" style="opacity:1;fill:none;" stroke="#000000" cx="17.427" cy="17.426" r="3.714"/> 	</g> 	 	<g id="_19D20EFE-7A48-47DC-A3A3-6A68C329B8A8sendTask" display="none"> 		<path id="_19D20EFE-7A48-47DC-A3A3-6A68C329B8A8stframe24" oryx:anchors="left top" stroke="#FFFFFF" fill="black" stroke-width="1" d="M8,11 L8,21 L24,21 L24,11 L16,17z"/> 		<path id="_19D20EFE-7A48-47DC-A3A3-6A68C329B8A8stframe25" oryx:anchors="left top" stroke="#FFFFFF" fill="black" stroke-width="1" d="M7,10 L16,17 L25 10z"/> 	</g> 	 	<g id="_19D20EFE-7A48-47DC-A3A3-6A68C329B8A8receiveTask" display="none"> 		<path id="_19D20EFE-7A48-47DC-A3A3-6A68C329B8A8frame26" oryx:anchors="left top" stroke="#000000" fill="none" stroke-width="1" d="M8,11 L8,21 L24,21 L24,11z M8,11 L16,17 L24,11"/> 	</g> 	 	<g id="_19D20EFE-7A48-47DC-A3A3-6A68C329B8A8none" display="inherit"/>  	<g id="_19D20EFE-7A48-47DC-A3A3-6A68C329B8A8sequential" display="none">         <path oryx:anchors="bottom" fill="none" stroke="#000000" stroke-width="2" d=" M82.21 59  h10  M82.21 55  h10  M82.21 51  h10 " id="_19D20EFE-7A48-47DC-A3A3-6A68C329B8A8__19D20EFE-7A48-47DC-A3A3-6A68C329B8A8_20"/>     </g>   </g></g><g class="children" style="overflow:hidden"/><g class="edge"/></g><g class="controls"><g class="dockers"/><g class="magnets" transform="translate(185, 43.5)"><g pointer-events="all" display="none" transform="translate(-7, 7.75)"><circle cx="8" cy="8" r="4" stroke="none" fill="red" fill-opacity="0.3"/></g><g pointer-events="all" display="none" transform="translate(-7, 23.5)"><circle cx="8" cy="8" r="4" stroke="none" fill="red" fill-opacity="0.3"/></g><g pointer-events="all" display="none" transform="translate(-7, 39.25)"><circle cx="8" cy="8" r="4" stroke="none" fill="red" fill-opacity="0.3"/></g><g pointer-events="all" display="none" transform="translate(34.75, 54)"><circle cx="8" cy="8" r="4" stroke="none" fill="red" fill-opacity="0.3"/></g><g pointer-events="all" display="none" transform="translate(77.5, 54)"><circle cx="8" cy="8" r="4" stroke="none" fill="red" fill-opacity="0.3"/></g><g pointer-events="all" display="none" transform="translate(120.25, 54)"><circle cx="8" cy="8" r="4" stroke="none" fill="red" fill-opacity="0.3"/></g><g pointer-events="all" display="none" transform="translate(162, 7.75)"><circle cx="8" cy="8" r="4" stroke="none" fill="red" fill-opacity="0.3"/></g><g pointer-events="all" display="none" transform="translate(162, 23.5)"><circle cx="8" cy="8" r="4" stroke="none" fill="red" fill-opacity="0.3"/></g><g pointer-events="all" display="none" transform="translate(162, 39.25)"><circle cx="8" cy="8" r="4" stroke="none" fill="red" fill-opacity="0.3"/></g><g pointer-events="all" display="none" transform="translate(34.75, -7)"><circle cx="8" cy="8" r="4" stroke="none" fill="red" fill-opacity="0.3"/></g><g pointer-events="all" display="none" transform="translate(77.5, -7)"><circle cx="8" cy="8" r="4" stroke="none" fill="red" fill-opacity="0.3"/></g><g pointer-events="all" display="none" transform="translate(120.25, -7)"><circle cx="8" cy="8" r="4" stroke="none" fill="red" fill-opacity="0.3"/></g><g pointer-events="all" display="none" transform="translate(77.5, 23.5)"><circle cx="8" cy="8" r="4" stroke="none" fill="red" fill-opacity="0.3"/></g></g></g></g></g><g class="edge"/></g><g class="controls"><g class="dockers"/><g class="magnets" transform="translate(40, 40)"><g pointer-events="all" display="none" transform="translate(307.5, 67)"><circle cx="8" cy="8" r="4" stroke="none" fill="red" fill-opacity="0.3"/></g></g></g></g></g><g class="edge"><g id="_E1778E65-EBE9-4673-B7AA-67EF21AEB533" bpmn2nodeid="_3D1B9CA7-EF31-4108-ADF7-FFB3DB822EE5"><g class="stencils"><g class="me"><g pointer-events="painted" bpmn2nodeid="_A11C3667-1969-4C6D-BD1E-3C1181FC6F56"><path id="_E1778E65-EBE9-4673-B7AA-67EF21AEB533_1" d="M100.09375 115L224.9375 115 " stroke="#000000" fill="none" stroke-width="2" stroke-linecap="round" stroke-linejoin="round" marker-start="url(#_E1778E65-EBE9-4673-B7AA-67EF21AEB533start)" marker-end="url(#_E1778E65-EBE9-4673-B7AA-67EF21AEB533end)"/></g><text id="_E1778E65-EBE9-4673-B7AA-67EF21AEB533text_name" font-size="12" x="114.09375" y="101" oryx:edgePosition="startTop" stroke-width="0pt" letter-spacing="-0.01px" fill="#000000" text-anchor="start" transform="rotate(360 100.09375 115)" visibility="inherit" oryx:fontSize="12"/></g><g class="children" style="overflow:hidden"/><g class="edge"/></g><g class="controls"><g class="dockers"/><g class="magnets"/></g></g><g id="_550B9E04-D0D2-48CB-A22F-62A75CBCACB8" bpmn2nodeid="_2D3A4607-E2A4-46DD-B333-99D0AD8714CA"><g class="stencils"><g class="me"><g pointer-events="painted" bpmn2nodeid="_926655C4-7EEC-435C-A26D-DB70985B8AE1"><path id="_550B9E04-D0D2-48CB-A22F-62A75CBCACB8_1" d="M396.33983794569787 114.70753036475061L589.2421933043022 114.05028213524939 " stroke="#000000" fill="none" stroke-width="2" stroke-linecap="round" stroke-linejoin="round" marker-start="url(#_550B9E04-D0D2-48CB-A22F-62A75CBCACB8start)" marker-end="url(#_550B9E04-D0D2-48CB-A22F-62A75CBCACB8end)"/></g><text id="_550B9E04-D0D2-48CB-A22F-62A75CBCACB8text_name" font-size="12" x="410.33983794569787" y="100.70753036475061" oryx:edgePosition="startTop" stroke-width="0pt" letter-spacing="-0.01px" fill="#000000" text-anchor="start" transform="rotate(359.80478515228384 396.33983794569787 114.70753036475061)" visibility="inherit" oryx:fontSize="12"/></g><g class="children" style="overflow:hidden"/><g class="edge"/></g><g class="controls"><g class="dockers"/><g class="magnets"/></g></g></g><text id="_26E07472-B12C-4671-ACB7-D7D6DD5A53DC" style="stroke-width:1;fill:rgb(177,194,214);font-family:arial;font-weight:bold" font-size="12" onclick="ORYX.Plugins.CanvasTitle.openTextualAnalysis()" onmouseover="ORYX.Plugins.CanvasTitle.addToolTip('_26E07472-B12C-4671-ACB7-D7D6DD5A53DC')" transform="translate(10, 20)">documentos-tramites v.1.0 (proceso.documentos-tramites)</text></g></g></svg>