<svg xmlns="http://www.w3.org/2000/svg" xmlns:oryx="http://oryx-editor.org" id="_F257EF74-CDA1-4A0E-AFA1-9F5474AFE699" width="841" height="421.671875" xmlns:xlink="http://www.w3.org/1999/xlink" xmlns:svg="http://www.w3.org/2000/svg"><defs><marker id="_64AC4720-FA09-4BA5-895D-C4A5B82ABF29start" refX="1" refY="5" markerUnits="userSpaceOnUse" markerWidth="17" markerHeight="11" orient="auto" fill="#000000" stroke="#000000"> 	  		<path id="_64AC4720-FA09-4BA5-895D-C4A5B82ABF29conditional" d="M 0 5 L 8 0 L 16 5 L 8 10 L 0 5" fill="white" stroke="#000000" stroke-width="1" display="none"/> 			<path id="_64AC4720-FA09-4BA5-895D-C4A5B82ABF29default" d="M 5 0 L 11 10" fill="white" stroke="#000000" stroke-width="1" display="none"/> 	  	</marker><marker id="_64AC4720-FA09-4BA5-895D-C4A5B82ABF29end" refX="15" refY="6" markerUnits="userSpaceOnUse" markerWidth="15" markerHeight="12" orient="auto" fill="#000000" stroke="#000000"> 	  		<path id="_64AC4720-FA09-4BA5-895D-C4A5B82ABF29frame2" d="M 0 1 L 15 6 L 0 11z" fill="#000000" stroke="#000000" stroke-linejoin="round" stroke-width="2"/> 	  	</marker><marker id="_73FE3FCE-340A-469D-A622-4F786E457131start" refX="1" refY="5" markerUnits="userSpaceOnUse" markerWidth="17" markerHeight="11" orient="auto" fill="#000000" stroke="#000000"> 	  		<path id="_73FE3FCE-340A-469D-A622-4F786E457131conditional" d="M 0 5 L 8 0 L 16 5 L 8 10 L 0 5" fill="white" stroke="#000000" stroke-width="1" display="none"/> 			<path id="_73FE3FCE-340A-469D-A622-4F786E457131default" d="M 5 0 L 11 10" fill="white" stroke="#000000" stroke-width="1" display="none"/> 	  	</marker><marker id="_73FE3FCE-340A-469D-A622-4F786E457131end" refX="15" refY="6" markerUnits="userSpaceOnUse" markerWidth="15" markerHeight="12" orient="auto" fill="#000000" stroke="#000000"> 	  		<path id="_73FE3FCE-340A-469D-A622-4F786E457131frame2" d="M 0 1 L 15 6 L 0 11z" fill="#000000" stroke="#000000" stroke-linejoin="round" stroke-width="2"/> 	  	</marker><marker id="_12BD0C3E-DE56-4C34-B0FC-A49710FD945Estart" refX="1" refY="5" markerUnits="userSpaceOnUse" markerWidth="17" markerHeight="11" orient="auto" fill="#000000" stroke="#000000"> 	  		<path id="_12BD0C3E-DE56-4C34-B0FC-A49710FD945Econditional" d="M 0 5 L 8 0 L 16 5 L 8 10 L 0 5" fill="white" stroke="#000000" stroke-width="1" display="none"/> 			<path id="_12BD0C3E-DE56-4C34-B0FC-A49710FD945Edefault" d="M 5 0 L 11 10" fill="white" stroke="#000000" stroke-width="1" display="none"/> 	  	</marker><marker id="_12BD0C3E-DE56-4C34-B0FC-A49710FD945Eend" refX="15" refY="6" markerUnits="userSpaceOnUse" markerWidth="15" markerHeight="12" orient="auto" fill="#000000" stroke="#000000"> 	  		<path id="_12BD0C3E-DE56-4C34-B0FC-A49710FD945Eframe2" d="M 0 1 L 15 6 L 0 11z" fill="#000000" stroke="#000000" stroke-linejoin="round" stroke-width="2"/> 	  	</marker><marker id="_0C8D31ED-EAAF-495E-830E-62F3EF9CB0B6start" refX="1" refY="5" markerUnits="userSpaceOnUse" markerWidth="17" markerHeight="11" orient="auto" fill="#000000" stroke="#000000"> 	  		<path id="_0C8D31ED-EAAF-495E-830E-62F3EF9CB0B6conditional" d="M 0 5 L 8 0 L 16 5 L 8 10 L 0 5" fill="white" stroke="#000000" stroke-width="1" display="none"/> 			<path id="_0C8D31ED-EAAF-495E-830E-62F3EF9CB0B6default" d="M 5 0 L 11 10" fill="white" stroke="#000000" stroke-width="1" display="none"/> 	  	</marker><marker id="_0C8D31ED-EAAF-495E-830E-62F3EF9CB0B6end" refX="15" refY="6" markerUnits="userSpaceOnUse" markerWidth="15" markerHeight="12" orient="auto" fill="#000000" stroke="#000000"> 	  		<path id="_0C8D31ED-EAAF-495E-830E-62F3EF9CB0B6frame2" d="M 0 1 L 15 6 L 0 11z" fill="#000000" stroke="#000000" stroke-linejoin="round" stroke-width="2"/> 	  	</marker><marker id="_8228140A-58F0-4CB1-AB75-1CF383A2E4A8start" refX="1" refY="5" markerUnits="userSpaceOnUse" markerWidth="17" markerHeight="11" orient="auto" fill="#000000" stroke="#000000"> 	  		<path id="_8228140A-58F0-4CB1-AB75-1CF383A2E4A8conditional" d="M 0 5 L 8 0 L 16 5 L 8 10 L 0 5" fill="white" stroke="#000000" stroke-width="1" display="none"/> 			<path id="_8228140A-58F0-4CB1-AB75-1CF383A2E4A8default" d="M 5 0 L 11 10" fill="white" stroke="#000000" stroke-width="1" display="none"/> 	  	</marker><marker id="_8228140A-58F0-4CB1-AB75-1CF383A2E4A8end" refX="15" refY="6" markerUnits="userSpaceOnUse" markerWidth="15" markerHeight="12" orient="auto" fill="#000000" stroke="#000000"> 	  		<path id="_8228140A-58F0-4CB1-AB75-1CF383A2E4A8frame2" d="M 0 1 L 15 6 L 0 11z" fill="#000000" stroke="#000000" stroke-linejoin="round" stroke-width="2"/> 	  	</marker></defs><g stroke="none" font-family="Verdana, sans-serif" font-size-adjust="none" font-style="normal" font-variant="normal" font-weight="normal" line-heigth="normal" font-size="12"><g class="stencils" transform="translate(14.999999046325684, 15.671873092651367)"><g class="me"/><g class="children"><g id="_2613A782-4B51-485C-9F70-A1217FBC4375" bpmn2nodeid="_62A89253-A259-49F0-AC09-5C9091DB87CA"><g class="stencils" transform="translate(10, 40)"><g class="me"><g pointer-events="painted" id="_2613A782-4B51-485C-9F70-A1217FBC4375">         <defs id="_2613A782-4B51-485C-9F70-A1217FBC4375__2613A782-4B51-485C-9F70-A1217FBC4375_3"> 		<radialGradient id="_2613A782-4B51-485C-9F70-A1217FBC4375background" cx="0%" cy="10%" r="100%" fx="20%" fy="10%"> 			<stop offset="0%" stop-color="#ffffff" stop-opacity="1" id="_2613A782-4B51-485C-9F70-A1217FBC4375__2613A782-4B51-485C-9F70-A1217FBC4375_4"/> 			<stop id="_2613A782-4B51-485C-9F70-A1217FBC4375fill_el" offset="100%" stop-color="#ffffff" stop-opacity="1"/> 		</radialGradient> 	</defs> 	   	 	<rect id="_2613A782-4B51-485C-9F70-A1217FBC4375border" oryx:resize="vertical horizontal" x="0" y="0" width="791" height="150" stroke="#000000" stroke-width="1" fill="url(#_2613A782-4B51-485C-9F70-A1217FBC4375background) white"/> 	 	 	 	<path id="_2613A782-4B51-485C-9F70-A1217FBC4375frame2" style="fill:none;stroke-width:1" d=" M0 0  L0 150 " oryx:anchors="left top bottom" stroke="#000000"/> 	 	undefined 	     <text x="50" y="75" oryx:rotate="270" font-size="12" id="_2613A782-4B51-485C-9F70-A1217FBC4375text_name" oryx:align="middle center" oryx:anchors="left" oryx:fittoelem="frame" stroke="black" stroke-width="0pt" letter-spacing="-0.01px" fill="#000000" text-anchor="middle" transform="rotate(270 50 75)" visibility="inherit" oryx:fontSize="12"><tspan x="50" y="75" dy="5">Proyector</tspan></text>   </g></g><g class="children" style="overflow:hidden"><g id="_6B29EF97-83FC-43A5-8E6A-C730AAF1E9B9" bpmn2nodeid="_5527A555-9D48-44F0-839A-38A657219A80"><g class="stencils" transform="translate(70, 48)"><g class="me"><g pointer-events="fill" id="_6B29EF97-83FC-43A5-8E6A-C730AAF1E9B9">        <defs id="_6B29EF97-83FC-43A5-8E6A-C730AAF1E9B9__6B29EF97-83FC-43A5-8E6A-C730AAF1E9B9_5"> 		<radialGradient id="_6B29EF97-83FC-43A5-8E6A-C730AAF1E9B9background" cx="10%" cy="10%" r="100%" fx="10%" fy="10%"> 			<stop offset="0%" stop-color="#ffffff" stop-opacity="1" id="_6B29EF97-83FC-43A5-8E6A-C730AAF1E9B9__6B29EF97-83FC-43A5-8E6A-C730AAF1E9B9_6"/> 			<stop id="_6B29EF97-83FC-43A5-8E6A-C730AAF1E9B9fill_el" offset="100%" stop-color="#9acd32" stop-opacity="1"/> 		</radialGradient> 	</defs> 	     <circle id="_6B29EF97-83FC-43A5-8E6A-C730AAF1E9B9bg_frame" cx="15" cy="15" r="15" stroke="#000000" fill="url(#_6B29EF97-83FC-43A5-8E6A-C730AAF1E9B9background) white" stroke-width="1" style="stroke-dasharray: 5.5, 3"/>      <circle id="_6B29EF97-83FC-43A5-8E6A-C730AAF1E9B9frame" cx="15" cy="15" r="15" stroke="#000000" fill="none" stroke-width="1" display="inherit"/>  	<text font-size="11" id="_6B29EF97-83FC-43A5-8E6A-C730AAF1E9B9text_name" x="15" y="32" oryx:align="top center" stroke="black" stroke-width="0pt" letter-spacing="-0.01px" fill="#000000" text-anchor="middle" transform="rotate(0 15 32)" visibility="inherit" oryx:fontSize="11"><tspan x="15" y="32" dy="11">Iniciar</tspan></text>   </g></g><g class="children" style="overflow:hidden"/><g class="edge"/></g><g class="controls"><g class="dockers"/><g class="magnets" transform="translate(70, 48)"><g pointer-events="all" display="none" transform="translate(7, 7)"><circle cx="8" cy="8" r="4" stroke="none" fill="red" fill-opacity="0.3"/></g></g></g></g><g id="_7030E0CD-2F1B-4AB3-8DC4-BB12C26558E3" bpmn2nodeid="_F39F2A30-EA96-43F6-AE10-6B9A8C51371F"><g class="stencils" transform="translate(255, 46)"><g class="me"><g id="_7030E0CD-2F1B-4AB3-8DC4-BB12C26558E3">      <defs id="_7030E0CD-2F1B-4AB3-8DC4-BB12C26558E3__7030E0CD-2F1B-4AB3-8DC4-BB12C26558E3_4"> 		<radialGradient id="_7030E0CD-2F1B-4AB3-8DC4-BB12C26558E3background" cx="10%" cy="10%" r="100%" fx="10%" fy="10%"> 			<stop offset="0%" stop-color="#ffffff" stop-opacity="1" id="_7030E0CD-2F1B-4AB3-8DC4-BB12C26558E3__7030E0CD-2F1B-4AB3-8DC4-BB12C26558E3_5"/> 			<stop id="_7030E0CD-2F1B-4AB3-8DC4-BB12C26558E3fill_el" offset="100%" stop-color="#f0e68c" stop-opacity="1"/> 		</radialGradient> 	</defs> 	     <path d=" M0 20.5  L20.5 0  L40 20.5  L20.5 40  z" id="_7030E0CD-2F1B-4AB3-8DC4-BB12C26558E3bg_frame" fill="url(#_7030E0CD-2F1B-4AB3-8DC4-BB12C26558E3background) white" style="stroke-width:1" stroke="#a67f00"/>     <circle id="_7030E0CD-2F1B-4AB3-8DC4-BB12C26558E3frame" cx="20.5" cy="20.5" r="9.75" style="fill:none;stroke-width:2.5" stroke="#a67f00"/>      	<text id="_7030E0CD-2F1B-4AB3-8DC4-BB12C26558E3text_name" x="30.5" y="30.5" oryx:align="left top" stroke-width="0pt" letter-spacing="-0.01px" fill="#000000" text-anchor="start" transform="rotate(0 30.5 30.5)" visibility="inherit" oryx:fontSize="12"/> 	   </g></g><g class="children" style="overflow:hidden"/><g class="edge"/></g><g class="controls"><g class="dockers"/><g class="magnets" transform="translate(255, 46)"><g pointer-events="all" display="none" transform="translate(12.5, 12.5)"><circle cx="8" cy="8" r="4" stroke="none" fill="red" fill-opacity="0.3"/></g></g></g></g><g id="_34C89E9E-3649-40F0-9838-F4B72FD5D3A0" bpmn2nodeid="_8A996FB9-F905-4C22-90E4-7418CE790566"><g class="stencils" transform="translate(365, 33)"><g class="me"><g pointer-events="fill" oryx:minimumSize="50 40" id="_34C89E9E-3649-40F0-9838-F4B72FD5D3A0">   	<defs id="_34C89E9E-3649-40F0-9838-F4B72FD5D3A0__34C89E9E-3649-40F0-9838-F4B72FD5D3A0_17"> 		<radialGradient id="_34C89E9E-3649-40F0-9838-F4B72FD5D3A0background" cx="10%" cy="10%" r="100%" fx="10%" fy="10%"> 			<stop offset="0%" stop-color="#ffffff" stop-opacity="1" id="_34C89E9E-3649-40F0-9838-F4B72FD5D3A0__34C89E9E-3649-40F0-9838-F4B72FD5D3A0_18"/> 			<stop id="_34C89E9E-3649-40F0-9838-F4B72FD5D3A0fill_el" offset="100%" stop-color="#fafad2" stop-opacity="1"/> 		</radialGradient> 		<radialGradient id="_34C89E9E-3649-40F0-9838-F4B72FD5D3A0borderbackground" cx="10%" cy="10%" r="100%" fx="10%" fy="10%"> 			<stop offset="0%" stop-color="#ffffff" stop-opacity="1" id="_34C89E9E-3649-40F0-9838-F4B72FD5D3A0__34C89E9E-3649-40F0-9838-F4B72FD5D3A0_19"/> 			<stop id="_34C89E9E-3649-40F0-9838-F4B72FD5D3A0fill_border" offset="100%" stop-color="#000000" stop-opacity="1" stroke="#000000"/> 		</radialGradient> 	</defs> 	 	<rect id="_34C89E9E-3649-40F0-9838-F4B72FD5D3A0text_frame" oryx:anchors="bottom top right left" x="1" y="1" width="164" height="65" rx="10" ry="10" stroke="none" stroke-width="0" fill="none"/> 	<rect id="_34C89E9E-3649-40F0-9838-F4B72FD5D3A0bg_frame" oryx:resize="vertical horizontal" x="0" y="0" width="170" height="66" rx="10" ry="10" stroke="#000000" stroke-width="1" fill="url(#_34C89E9E-3649-40F0-9838-F4B72FD5D3A0background) #ffffcc"/> 		<text font-size="12" id="_34C89E9E-3649-40F0-9838-F4B72FD5D3A0text_name" x="85" y="33" oryx:align="middle center" oryx:fittoelem="text_frame" stroke="black" text-anchor="middle" stroke-width="0pt" letter-spacing="-0.01px" fill="#000000" transform="rotate(0 85 33)" visibility="inherit" oryx:fontSize="12"><tspan x="85" y="33" dy="-1" id="ext-gen608">Gestión Producción </tspan><tspan x="85" y="33" dy="11" id="ext-gen609">Múltiples Documentos</tspan></text>     <g id="_34C89E9E-3649-40F0-9838-F4B72FD5D3A0manualTask" transform="scale(0.7,0.7) translate(8,8)" display="none">     	<path oryx:anchors="top left" id="_34C89E9E-3649-40F0-9838-F4B72FD5D3A0frame" style="opacity:1;fill:none;fill-opacity:1;stroke-width:1" d="M0.5,3.751l4.083-3.25c0,0,11.166,0.083,12.083,0.083s-2.417,2.917-1.5,2.917     s11.667,0,12.584,0c1.166,1.708-0.168,3.167-0.834,3.667s0.875,1.917-1,4.417c-0.75,0.25,0.75,1.875-1.333,3.333     c-1.167,0.583,0.583,1.542-1.25,2.833c-1.167,0-20.833,0.083-20.833,0.083l-2-1.333V3.751z" stroke="#000000"/> 		<path id="_34C89E9E-3649-40F0-9838-F4B72FD5D3A0frame2" oryx:anchors="top left" style="opacity:1;fill:none;stroke-width:2" d="M 13.5 7 L 27 7" stroke="#000000"/> 		<path id="_34C89E9E-3649-40F0-9838-F4B72FD5D3A0frame3" oryx:anchors="top left" style="opacity:1;fill:none;stroke-width:2" d="M 13.5 11 L 26 11" stroke="#000000"/> 		<path id="_34C89E9E-3649-40F0-9838-F4B72FD5D3A0frame4" oryx:anchors="top left" style="opacity:1;fill:none;stroke-width:1.5" d="M 14 14.5 L 25 14.5" stroke="#000000"/> 		<path id="_34C89E9E-3649-40F0-9838-F4B72FD5D3A0frame5" oryx:anchors="top left" style="opacity:1;fill:none;stroke-width:1.5" d="M 8.2 3.1 L 15 3.1" stroke="#000000"/> 	</g> 	 	<g id="_34C89E9E-3649-40F0-9838-F4B72FD5D3A0businessRuleTask" transform="scale(0.7,0.7) translate(8,8)" display="none"> 		<rect id="_34C89E9E-3649-40F0-9838-F4B72FD5D3A0frame6" oryx:anchors="top left" x="0" y="0" width="22" height="4" style="opacity:1;fill:#B3B1B3;fill-opacity:1;" stroke="#000000"/> 		<rect id="_34C89E9E-3649-40F0-9838-F4B72FD5D3A0frame7" oryx:anchors="top left" x="0" y="4" style="opacity:1;fill:none;" width="22" height="12" stroke="#000000"/> 		<path id="_34C89E9E-3649-40F0-9838-F4B72FD5D3A0frame8" oryx:anchors="top left" style="opacity:1;fill:none;" d="M 0 10 L 22 10" stroke="#000000"/> 		<path id="_34C89E9E-3649-40F0-9838-F4B72FD5D3A0frame9" oryx:anchors="top left" style="opacity:1; fill:none;" d="M 7 4 L 7 16" stroke="#000000"/> 	</g> 	 	<g id="_34C89E9E-3649-40F0-9838-F4B72FD5D3A0scriptTask" transform="scale(0.7,0.7) translate(8,8)" display="none"> 		<path oryx:anchors="top left" id="_34C89E9E-3649-40F0-9838-F4B72FD5D3A0frame10" style="opacity:1;fill:none;" stroke="#000000" d="M6.402,0.5h14.5c0,0-5.833,2.833-5.833,5.583s4.417,6,4.417,9.167    s-4.167,5.083-4.167,5.083H0.235c0,0,5-2.667,5-5s-4.583-6.75-4.583-9.25S6.402,0.5,6.402,0.5z"/> 		<path oryx:anchors="top left" id="_34C89E9E-3649-40F0-9838-F4B72FD5D3A0frame11" style="opacity:1;fill:none;stroke-width:1.5" d="M 3.5 4.5 L 13.5 4.5" stroke="#000000"/> 		<path oryx:anchors="top left" id="_34C89E9E-3649-40F0-9838-F4B72FD5D3A0frame12" style="opacity:1;fill:none;stroke-width:1.5" d="M 3.8 8.5 L 13.8 8.5" stroke="#000000"/> 		<path oryx:anchors="top left" id="_34C89E9E-3649-40F0-9838-F4B72FD5D3A0frame13" style="opacity:1;fill:none;stroke-width:1.5" d="M 6.3 12.5 L 16.3 12.5" stroke="#000000"/> 		<path oryx:anchors="top left" id="_34C89E9E-3649-40F0-9838-F4B72FD5D3A0frame14" style="opacity:1;fill:none;stroke-width:1.5" d="M 6.5 16.5 L 16.5 16.5" stroke="#000000"/> 	</g> 	 	<g id="_34C89E9E-3649-40F0-9838-F4B72FD5D3A0userTask" transform="scale(0.7,0.7) translate(8,8)" display="inherit"> 		<path id="_34C89E9E-3649-40F0-9838-F4B72FD5D3A0frame15" oryx:anchors="top left" style="opacity:1;fill:#F4F6F7" stroke="#000000" d="M0.585,24.167h24.083v-7.833c0,0-2.333-3.917-7.083-5.167h-9.25    c-4.417,1.333-7.833,5.75-7.833,5.75L0.585,24.167z"/> 		<path id="_34C89E9E-3649-40F0-9838-F4B72FD5D3A0frame16" oryx:anchors="top left" style="opacity:1;fill:none" d="M 6 20 L 6 24" stroke="#000000"/> 		<path id="_34C89E9E-3649-40F0-9838-F4B72FD5D3A0frame17" oryx:anchors="top left" style="opacity:1;fill:none" d="M 20 20 L 20 24" stroke="#000000"/> 		<circle id="_34C89E9E-3649-40F0-9838-F4B72FD5D3A0frame18" oryx:anchors="top left" fill="black" cx="13.002" cy="5.916" r="5.417" stroke="#000000"/> 		<path id="_34C89E9E-3649-40F0-9838-F4B72FD5D3A0frame19" oryx:anchors="top left" style="opacity:1;fill:#F0EFF0;" stroke="#000000" d="M8.043,7.083c0,0,2.814-2.426,5.376-1.807s4.624-0.693,4.624-0.693    c0.25,1.688,0.042,3.75-1.458,5.584c0,0,1.083,0.75,1.083,1.5s0.125,1.875-1,3s-5.5,1.25-6.75,0S8.668,12.834,8.668,12    s0.583-1.25,1.25-1.917C8.835,9.5,7.419,7.708,8.043,7.083z"/> 	</g> 	 	<g id="_34C89E9E-3649-40F0-9838-F4B72FD5D3A0serviceTask" transform="scale(0.7,0.7) translate(8,8)" display="none"> 		<polygon oryx:anchors="top left" id="_34C89E9E-3649-40F0-9838-F4B72FD5D3A0frame20" style="opacity:1;fill:#ffffff" stroke="#000000" points="15.392,5.064 17.954,2.502 20.347,4.895 17.786,7.455     18.729,9.732 22.353,9.732 22.353,13.115 18.731,13.115 17.788,15.392 20.351,17.955 17.958,20.347 15.397,17.786 13.12,18.729     13.12,22.353 9.737,22.353 9.737,18.731 7.46,17.788 4.897,20.35 2.506,17.958 5.066,15.397 4.124,13.12 0.5,13.12 0.5,9.737     4.121,9.737 5.065,7.461 2.503,4.898 4.895,2.506 7.455,5.066 9.732,4.125 9.732,0.5 13.116,0.5 13.116,4.121 "/> 		<circle oryx:anchors="top left" id="_34C89E9E-3649-40F0-9838-F4B72FD5D3A0frame21" style="opacity:1;fill:none" stroke="#000000" cx="11.427" cy="11.426" r="3.714"/> 		<polygon oryx:anchors="top left" id="_34C89E9E-3649-40F0-9838-F4B72FD5D3A0frame22" style="opacity:1;fill:#ffffff" stroke="#000000" points="21.392,11.064 23.954,8.502 26.347,10.895 23.786,13.455     24.729,15.732 28.353,15.732 28.353,19.115 24.731,19.115 23.788,21.392 26.351,23.955 23.958,26.347 21.397,23.786 19.12,24.729     19.12,28.353 15.737,28.353 15.737,24.731 13.46,23.788 10.897,26.35 8.506,23.958 11.066,21.397 10.124,19.12 6.5,19.12     6.5,15.737 10.121,15.737 11.065,13.461 8.503,10.898 10.895,8.506 13.455,11.066 15.732,10.125 15.732,6.5 19.116,6.5     19.116,10.121 "/> 		<circle oryx:anchors="top left" id="_34C89E9E-3649-40F0-9838-F4B72FD5D3A0frame23" style="opacity:1;fill:none;" stroke="#000000" cx="17.427" cy="17.426" r="3.714"/> 	</g> 	 	<g id="_34C89E9E-3649-40F0-9838-F4B72FD5D3A0sendTask" display="none"> 		<path id="_34C89E9E-3649-40F0-9838-F4B72FD5D3A0stframe24" oryx:anchors="left top" stroke="#FFFFFF" fill="black" stroke-width="1" d="M8,11 L8,21 L24,21 L24,11 L16,17z"/> 		<path id="_34C89E9E-3649-40F0-9838-F4B72FD5D3A0stframe25" oryx:anchors="left top" stroke="#FFFFFF" fill="black" stroke-width="1" d="M7,10 L16,17 L25 10z"/> 	</g> 	 	<g id="_34C89E9E-3649-40F0-9838-F4B72FD5D3A0receiveTask" display="none"> 		<path id="_34C89E9E-3649-40F0-9838-F4B72FD5D3A0frame26" oryx:anchors="left top" stroke="#000000" fill="none" stroke-width="1" d="M8,11 L8,21 L24,21 L24,11z M8,11 L16,17 L24,11"/> 	</g> 	 	<g id="_34C89E9E-3649-40F0-9838-F4B72FD5D3A0none" display="inherit"/>  	<g id="_34C89E9E-3649-40F0-9838-F4B72FD5D3A0sequential" display="none">         <path oryx:anchors="bottom" fill="none" stroke="#000000" stroke-width="2" d=" M81.7 62  h10  M81.7 58  h10  M81.7 54  h10 " id="_34C89E9E-3649-40F0-9838-F4B72FD5D3A0__34C89E9E-3649-40F0-9838-F4B72FD5D3A0_20"/>     </g>   </g></g><g class="children" style="overflow:hidden"/><g class="edge"/></g><g class="controls"><g class="dockers"/><g class="magnets" transform="translate(365, 33)"><g pointer-events="all" display="none" transform="translate(-7, 8.5)"><circle cx="8" cy="8" r="4" stroke="none" fill="red" fill-opacity="0.3"/></g><g pointer-events="all" display="none" transform="translate(-7, 25)"><circle cx="8" cy="8" r="4" stroke="none" fill="red" fill-opacity="0.3"/></g><g pointer-events="all" display="none" transform="translate(-7, 41.5)"><circle cx="8" cy="8" r="4" stroke="none" fill="red" fill-opacity="0.3"/></g><g pointer-events="all" display="none" transform="translate(34.5, 57)"><circle cx="8" cy="8" r="4" stroke="none" fill="red" fill-opacity="0.3"/></g><g pointer-events="all" display="none" transform="translate(77, 57)"><circle cx="8" cy="8" r="4" stroke="none" fill="red" fill-opacity="0.3"/></g><g pointer-events="all" display="none" transform="translate(119.5, 57)"><circle cx="8" cy="8" r="4" stroke="none" fill="red" fill-opacity="0.3"/></g><g pointer-events="all" display="none" transform="translate(161, 8.5)"><circle cx="8" cy="8" r="4" stroke="none" fill="red" fill-opacity="0.3"/></g><g pointer-events="all" display="none" transform="translate(161, 25)"><circle cx="8" cy="8" r="4" stroke="none" fill="red" fill-opacity="0.3"/></g><g pointer-events="all" display="none" transform="translate(161, 41.5)"><circle cx="8" cy="8" r="4" stroke="none" fill="red" fill-opacity="0.3"/></g><g pointer-events="all" display="none" transform="translate(34.5, -7)"><circle cx="8" cy="8" r="4" stroke="none" fill="red" fill-opacity="0.3"/></g><g pointer-events="all" display="none" transform="translate(77, -7)"><circle cx="8" cy="8" r="4" stroke="none" fill="red" fill-opacity="0.3"/></g><g pointer-events="all" display="none" transform="translate(119.5, -7)"><circle cx="8" cy="8" r="4" stroke="none" fill="red" fill-opacity="0.3"/></g><g pointer-events="all" display="none" transform="translate(77, 25)"><circle cx="8" cy="8" r="4" stroke="none" fill="red" fill-opacity="0.3"/></g></g></g></g><g id="_C33B973C-E22C-4F25-AAAA-3B83FB259CD5" bpmn2nodeid="_86A5CA88-0676-424E-AB3D-AFFCE0F25F3D"><g class="stencils" transform="translate(695, 52)"><g class="me"><g pointer-events="fill" id="_C33B973C-E22C-4F25-AAAA-3B83FB259CD5">      <defs id="_C33B973C-E22C-4F25-AAAA-3B83FB259CD5__C33B973C-E22C-4F25-AAAA-3B83FB259CD5_5"> 		<radialGradient id="_C33B973C-E22C-4F25-AAAA-3B83FB259CD5background" cx="10%" cy="10%" r="100%" fx="10%" fy="10%"> 			<stop offset="0%" stop-color="#ffffff" stop-opacity="1" id="_C33B973C-E22C-4F25-AAAA-3B83FB259CD5__C33B973C-E22C-4F25-AAAA-3B83FB259CD5_6"/> 			<stop id="_C33B973C-E22C-4F25-AAAA-3B83FB259CD5fill_el" offset="100%" stop-color="#ff6347" stop-opacity="1"/> 		</radialGradient> 	</defs> 	     <circle id="_C33B973C-E22C-4F25-AAAA-3B83FB259CD5bg_frame" cx="14" cy="14" r="14" stroke="#000000" fill="url(#_C33B973C-E22C-4F25-AAAA-3B83FB259CD5background) white" stroke-width="3"/> 	<text font-size="11" id="_C33B973C-E22C-4F25-AAAA-3B83FB259CD5text_name" x="14" y="30" oryx:align="top center" stroke="black" stroke-width="0pt" letter-spacing="-0.01px" fill="#000000" text-anchor="middle" transform="rotate(0 14 30)" visibility="inherit" oryx:fontSize="11"><tspan x="14" y="30" dy="11" id="ext-gen630">Finalizar</tspan></text>   </g></g><g class="children" style="overflow:hidden"/><g class="edge"/></g><g class="controls"><g class="dockers"/><g class="magnets" transform="translate(695, 52)"><g pointer-events="all" display="none" transform="translate(6, 6)"><circle cx="8" cy="8" r="4" stroke="none" fill="red" fill-opacity="0.3"/></g></g></g></g></g><g class="edge"/></g><g class="controls"><g class="dockers"/><g class="magnets" transform="translate(10, 40)"><g pointer-events="all" display="none" transform="translate(387.5, 67)"><circle cx="8" cy="8" r="4" stroke="none" fill="red" fill-opacity="0.3"/></g></g></g></g><g id="_00664C0E-AB3B-42FA-8FE3-546FED8821DF" bpmn2nodeid="_017D9D9F-7E0F-4526-9577-C668621A2C39"><g class="stencils" transform="translate(10, 210)"><g class="me"><g pointer-events="painted" id="_00664C0E-AB3B-42FA-8FE3-546FED8821DF">         <defs id="_00664C0E-AB3B-42FA-8FE3-546FED8821DF__00664C0E-AB3B-42FA-8FE3-546FED8821DF_3"> 		<radialGradient id="_00664C0E-AB3B-42FA-8FE3-546FED8821DFbackground" cx="0%" cy="10%" r="100%" fx="20%" fy="10%"> 			<stop offset="0%" stop-color="#ffffff" stop-opacity="1" id="_00664C0E-AB3B-42FA-8FE3-546FED8821DF__00664C0E-AB3B-42FA-8FE3-546FED8821DF_4"/> 			<stop id="_00664C0E-AB3B-42FA-8FE3-546FED8821DFfill_el" offset="100%" stop-color="#ffffff" stop-opacity="1"/> 		</radialGradient> 	</defs> 	   	 	<rect id="_00664C0E-AB3B-42FA-8FE3-546FED8821DFborder" oryx:resize="vertical horizontal" x="0" y="0" width="791" height="171" stroke="#000000" stroke-width="1" fill="url(#_00664C0E-AB3B-42FA-8FE3-546FED8821DFbackground) white"/> 	 	 	 	<path id="_00664C0E-AB3B-42FA-8FE3-546FED8821DFframe2" style="fill:none;stroke-width:1" d=" M0 0  L0 171 " oryx:anchors="left top bottom" stroke="#000000"/> 	 	undefined 	     <text x="50" y="85.5" oryx:rotate="270" font-size="12" id="_00664C0E-AB3B-42FA-8FE3-546FED8821DFtext_name" oryx:align="middle center" oryx:anchors="left" oryx:fittoelem="frame" stroke="black" stroke-width="0pt" letter-spacing="-0.01px" fill="#000000" text-anchor="middle" transform="rotate(270 50 85.5)" visibility="inherit" oryx:fontSize="12"><tspan x="50" y="85.5" dy="5">Sistema</tspan></text>   </g></g><g class="children" style="overflow:hidden"><g id="_075B9051-99DB-416F-B64E-978065883C83" bpmn2nodeid="_1CDAED6A-D71F-4CCF-B45F-97611D592F86"><g class="stencils" transform="translate(70, 65)"><g class="me"><g pointer-events="fill" id="_075B9051-99DB-416F-B64E-978065883C83">      <defs id="_075B9051-99DB-416F-B64E-978065883C83__075B9051-99DB-416F-B64E-978065883C83_5"> 		<radialGradient id="_075B9051-99DB-416F-B64E-978065883C83background" cx="10%" cy="10%" r="100%" fx="10%" fy="10%"> 			<stop offset="0%" stop-color="#ffffff" stop-opacity="1" id="_075B9051-99DB-416F-B64E-978065883C83__075B9051-99DB-416F-B64E-978065883C83_6"/> 			<stop id="_075B9051-99DB-416F-B64E-978065883C83fill_el" offset="100%" stop-color="#9acd32" stop-opacity="1"/> 		</radialGradient> 	</defs> 	     <circle id="_075B9051-99DB-416F-B64E-978065883C83bg_frame" cx="15" cy="15" r="15" stroke="#000000" fill="url(#_075B9051-99DB-416F-B64E-978065883C83background) white" stroke-width="1" style="stroke-dasharray: 5.5, 3"/>      <circle id="_075B9051-99DB-416F-B64E-978065883C83frame" cx="15" cy="15" r="15" stroke="#000000" fill="none" stroke-width="1" display="inherit"/>      <path id="_075B9051-99DB-416F-B64E-978065883C83body" d=" M7.7124971 20.247342  L22.333334 20.247342  L15.022915000000001 7.575951200000001  L7.7124971 20.247342  z" stroke="black" style="fill:none;stroke-width:1.4;stroke-miterlimit:4;stroke-dasharray:none"/> 	<text font-size="11" id="_075B9051-99DB-416F-B64E-978065883C83text_name" x="15" y="32" oryx:align="top center" stroke="black" stroke-width="0pt" letter-spacing="-0.01px" fill="#000000" text-anchor="middle" transform="rotate(0 15 32)" visibility="inherit" oryx:fontSize="11"><tspan x="15" y="32" dy="11">Iniciar Documentos en Trámite</tspan></text>   </g></g><g class="children" style="overflow:hidden"/><g class="edge"/></g><g class="controls"><g class="dockers"/><g class="magnets" transform="translate(70, 65)"><g pointer-events="all" display="none" transform="translate(7, 7)"><circle cx="8" cy="8" r="4" stroke="none" fill="red" fill-opacity="0.3"/></g></g></g></g><g id="_50743483-4F50-4010-9589-A87BE3431913" bpmn2nodeid="_0E5D9609-93F1-4530-A016-6CD208E5759A"><g class="stencils" transform="translate(210, 55)"><g class="me"><g pointer-events="fill" oryx:minimumSize="50 40" id="_50743483-4F50-4010-9589-A87BE3431913">   	<defs id="_50743483-4F50-4010-9589-A87BE3431913__50743483-4F50-4010-9589-A87BE3431913_17"> 		<radialGradient id="_50743483-4F50-4010-9589-A87BE3431913background" cx="10%" cy="10%" r="100%" fx="10%" fy="10%"> 			<stop offset="0%" stop-color="#ffffff" stop-opacity="1" id="_50743483-4F50-4010-9589-A87BE3431913__50743483-4F50-4010-9589-A87BE3431913_18"/> 			<stop id="_50743483-4F50-4010-9589-A87BE3431913fill_el" offset="100%" stop-color="#fafad2" stop-opacity="1"/> 		</radialGradient> 		<radialGradient id="_50743483-4F50-4010-9589-A87BE3431913borderbackground" cx="10%" cy="10%" r="100%" fx="10%" fy="10%"> 			<stop offset="0%" stop-color="#ffffff" stop-opacity="1" id="_50743483-4F50-4010-9589-A87BE3431913__50743483-4F50-4010-9589-A87BE3431913_19"/> 			<stop id="_50743483-4F50-4010-9589-A87BE3431913fill_border" offset="100%" stop-color="#000000" stop-opacity="1" stroke="#000000"/> 		</radialGradient> 	</defs> 	 	<rect id="_50743483-4F50-4010-9589-A87BE3431913text_frame" oryx:anchors="bottom top right left" x="1" y="1" width="104" height="49" rx="10" ry="10" stroke="none" stroke-width="0" fill="none"/> 	<rect id="_50743483-4F50-4010-9589-A87BE3431913bg_frame" oryx:resize="vertical horizontal" x="0" y="0" width="110.00000000000001" height="50" rx="10" ry="10" stroke="#000000" stroke-width="1" fill="url(#_50743483-4F50-4010-9589-A87BE3431913background) #ffffcc"/> 		<text font-size="12" id="_50743483-4F50-4010-9589-A87BE3431913text_name" x="55.00000000000001" y="25" oryx:align="middle center" oryx:fittoelem="text_frame" stroke="black" text-anchor="middle" stroke-width="0pt" letter-spacing="-0.01px" fill="#000000" transform="rotate(0 55.00000000000001 25)" visibility="inherit" oryx:fontSize="12"><tspan x="55.00000000000001" y="25" dy="5">Iniciar Variables</tspan></text>     <g id="_50743483-4F50-4010-9589-A87BE3431913manualTask" transform="scale(0.7,0.7) translate(8,8)" display="none">     	<path oryx:anchors="top left" id="_50743483-4F50-4010-9589-A87BE3431913frame" style="opacity:1;fill:none;fill-opacity:1;stroke-width:1" d="M0.5,3.751l4.083-3.25c0,0,11.166,0.083,12.083,0.083s-2.417,2.917-1.5,2.917     s11.667,0,12.584,0c1.166,1.708-0.168,3.167-0.834,3.667s0.875,1.917-1,4.417c-0.75,0.25,0.75,1.875-1.333,3.333     c-1.167,0.583,0.583,1.542-1.25,2.833c-1.167,0-20.833,0.083-20.833,0.083l-2-1.333V3.751z" stroke="#000000"/> 		<path id="_50743483-4F50-4010-9589-A87BE3431913frame2" oryx:anchors="top left" style="opacity:1;fill:none;stroke-width:2" d="M 13.5 7 L 27 7" stroke="#000000"/> 		<path id="_50743483-4F50-4010-9589-A87BE3431913frame3" oryx:anchors="top left" style="opacity:1;fill:none;stroke-width:2" d="M 13.5 11 L 26 11" stroke="#000000"/> 		<path id="_50743483-4F50-4010-9589-A87BE3431913frame4" oryx:anchors="top left" style="opacity:1;fill:none;stroke-width:1.5" d="M 14 14.5 L 25 14.5" stroke="#000000"/> 		<path id="_50743483-4F50-4010-9589-A87BE3431913frame5" oryx:anchors="top left" style="opacity:1;fill:none;stroke-width:1.5" d="M 8.2 3.1 L 15 3.1" stroke="#000000"/> 	</g> 	 	<g id="_50743483-4F50-4010-9589-A87BE3431913businessRuleTask" transform="scale(0.7,0.7) translate(8,8)" display="none"> 		<rect id="_50743483-4F50-4010-9589-A87BE3431913frame6" oryx:anchors="top left" x="0" y="0" width="22" height="4" style="opacity:1;fill:#B3B1B3;fill-opacity:1;" stroke="#000000"/> 		<rect id="_50743483-4F50-4010-9589-A87BE3431913frame7" oryx:anchors="top left" x="0" y="4" style="opacity:1;fill:none;" width="22" height="12" stroke="#000000"/> 		<path id="_50743483-4F50-4010-9589-A87BE3431913frame8" oryx:anchors="top left" style="opacity:1;fill:none;" d="M 0 10 L 22 10" stroke="#000000"/> 		<path id="_50743483-4F50-4010-9589-A87BE3431913frame9" oryx:anchors="top left" style="opacity:1; fill:none;" d="M 7 4 L 7 16" stroke="#000000"/> 	</g> 	 	<g id="_50743483-4F50-4010-9589-A87BE3431913scriptTask" transform="scale(0.7,0.7) translate(8,8)" display="inherit"> 		<path oryx:anchors="top left" id="_50743483-4F50-4010-9589-A87BE3431913frame10" style="opacity:1;fill:none;" stroke="#000000" d="M6.402,0.5h14.5c0,0-5.833,2.833-5.833,5.583s4.417,6,4.417,9.167    s-4.167,5.083-4.167,5.083H0.235c0,0,5-2.667,5-5s-4.583-6.75-4.583-9.25S6.402,0.5,6.402,0.5z"/> 		<path oryx:anchors="top left" id="_50743483-4F50-4010-9589-A87BE3431913frame11" style="opacity:1;fill:none;stroke-width:1.5" d="M 3.5 4.5 L 13.5 4.5" stroke="#000000"/> 		<path oryx:anchors="top left" id="_50743483-4F50-4010-9589-A87BE3431913frame12" style="opacity:1;fill:none;stroke-width:1.5" d="M 3.8 8.5 L 13.8 8.5" stroke="#000000"/> 		<path oryx:anchors="top left" id="_50743483-4F50-4010-9589-A87BE3431913frame13" style="opacity:1;fill:none;stroke-width:1.5" d="M 6.3 12.5 L 16.3 12.5" stroke="#000000"/> 		<path oryx:anchors="top left" id="_50743483-4F50-4010-9589-A87BE3431913frame14" style="opacity:1;fill:none;stroke-width:1.5" d="M 6.5 16.5 L 16.5 16.5" stroke="#000000"/> 	</g> 	 	<g id="_50743483-4F50-4010-9589-A87BE3431913userTask" transform="scale(0.7,0.7) translate(8,8)" display="none"> 		<path id="_50743483-4F50-4010-9589-A87BE3431913frame15" oryx:anchors="top left" style="opacity:1;fill:#F4F6F7" stroke="#000000" d="M0.585,24.167h24.083v-7.833c0,0-2.333-3.917-7.083-5.167h-9.25    c-4.417,1.333-7.833,5.75-7.833,5.75L0.585,24.167z"/> 		<path id="_50743483-4F50-4010-9589-A87BE3431913frame16" oryx:anchors="top left" style="opacity:1;fill:none" d="M 6 20 L 6 24" stroke="#000000"/> 		<path id="_50743483-4F50-4010-9589-A87BE3431913frame17" oryx:anchors="top left" style="opacity:1;fill:none" d="M 20 20 L 20 24" stroke="#000000"/> 		<circle id="_50743483-4F50-4010-9589-A87BE3431913frame18" oryx:anchors="top left" fill="black" cx="13.002" cy="5.916" r="5.417" stroke="#000000"/> 		<path id="_50743483-4F50-4010-9589-A87BE3431913frame19" oryx:anchors="top left" style="opacity:1;fill:#F0EFF0;" stroke="#000000" d="M8.043,7.083c0,0,2.814-2.426,5.376-1.807s4.624-0.693,4.624-0.693    c0.25,1.688,0.042,3.75-1.458,5.584c0,0,1.083,0.75,1.083,1.5s0.125,1.875-1,3s-5.5,1.25-6.75,0S8.668,12.834,8.668,12    s0.583-1.25,1.25-1.917C8.835,9.5,7.419,7.708,8.043,7.083z"/> 	</g> 	 	<g id="_50743483-4F50-4010-9589-A87BE3431913serviceTask" transform="scale(0.7,0.7) translate(8,8)" display="none"> 		<polygon oryx:anchors="top left" id="_50743483-4F50-4010-9589-A87BE3431913frame20" style="opacity:1;fill:#ffffff" stroke="#000000" points="15.392,5.064 17.954,2.502 20.347,4.895 17.786,7.455     18.729,9.732 22.353,9.732 22.353,13.115 18.731,13.115 17.788,15.392 20.351,17.955 17.958,20.347 15.397,17.786 13.12,18.729     13.12,22.353 9.737,22.353 9.737,18.731 7.46,17.788 4.897,20.35 2.506,17.958 5.066,15.397 4.124,13.12 0.5,13.12 0.5,9.737     4.121,9.737 5.065,7.461 2.503,4.898 4.895,2.506 7.455,5.066 9.732,4.125 9.732,0.5 13.116,0.5 13.116,4.121 "/> 		<circle oryx:anchors="top left" id="_50743483-4F50-4010-9589-A87BE3431913frame21" style="opacity:1;fill:none" stroke="#000000" cx="11.427" cy="11.426" r="3.714"/> 		<polygon oryx:anchors="top left" id="_50743483-4F50-4010-9589-A87BE3431913frame22" style="opacity:1;fill:#ffffff" stroke="#000000" points="21.392,11.064 23.954,8.502 26.347,10.895 23.786,13.455     24.729,15.732 28.353,15.732 28.353,19.115 24.731,19.115 23.788,21.392 26.351,23.955 23.958,26.347 21.397,23.786 19.12,24.729     19.12,28.353 15.737,28.353 15.737,24.731 13.46,23.788 10.897,26.35 8.506,23.958 11.066,21.397 10.124,19.12 6.5,19.12     6.5,15.737 10.121,15.737 11.065,13.461 8.503,10.898 10.895,8.506 13.455,11.066 15.732,10.125 15.732,6.5 19.116,6.5     19.116,10.121 "/> 		<circle oryx:anchors="top left" id="_50743483-4F50-4010-9589-A87BE3431913frame23" style="opacity:1;fill:none;" stroke="#000000" cx="17.427" cy="17.426" r="3.714"/> 	</g> 	 	<g id="_50743483-4F50-4010-9589-A87BE3431913sendTask" display="none"> 		<path id="_50743483-4F50-4010-9589-A87BE3431913stframe24" oryx:anchors="left top" stroke="#FFFFFF" fill="black" stroke-width="1" d="M8,11 L8,21 L24,21 L24,11 L16,17z"/> 		<path id="_50743483-4F50-4010-9589-A87BE3431913stframe25" oryx:anchors="left top" stroke="#FFFFFF" fill="black" stroke-width="1" d="M7,10 L16,17 L25 10z"/> 	</g> 	 	<g id="_50743483-4F50-4010-9589-A87BE3431913receiveTask" display="none"> 		<path id="_50743483-4F50-4010-9589-A87BE3431913frame26" oryx:anchors="left top" stroke="#000000" fill="none" stroke-width="1" d="M8,11 L8,21 L24,21 L24,11z M8,11 L16,17 L24,11"/> 	</g> 	 	<g id="_50743483-4F50-4010-9589-A87BE3431913none" display="inherit"/>  	<g id="_50743483-4F50-4010-9589-A87BE3431913sequential" display="none">         <path oryx:anchors="bottom" fill="none" stroke="#000000" stroke-width="2" d=" M51.1 46  h10  M51.1 42  h10  M51.1 38  h10 " id="_50743483-4F50-4010-9589-A87BE3431913__50743483-4F50-4010-9589-A87BE3431913_20"/>     </g>   </g></g><g class="children" style="overflow:hidden"/><g class="edge"/></g><g class="controls"><g class="dockers"/><g class="magnets" transform="translate(210, 55)"><g pointer-events="all" display="none" transform="translate(-7, 4.5)"><circle cx="8" cy="8" r="4" stroke="none" fill="red" fill-opacity="0.3"/></g><g pointer-events="all" display="none" transform="translate(-7, 17)"><circle cx="8" cy="8" r="4" stroke="none" fill="red" fill-opacity="0.3"/></g><g pointer-events="all" display="none" transform="translate(-7, 29.5)"><circle cx="8" cy="8" r="4" stroke="none" fill="red" fill-opacity="0.3"/></g><g pointer-events="all" display="none" transform="translate(19.500000000000004, 41)"><circle cx="8" cy="8" r="4" stroke="none" fill="red" fill-opacity="0.3"/></g><g pointer-events="all" display="none" transform="translate(47.00000000000001, 41)"><circle cx="8" cy="8" r="4" stroke="none" fill="red" fill-opacity="0.3"/></g><g pointer-events="all" display="none" transform="translate(74.5, 41)"><circle cx="8" cy="8" r="4" stroke="none" fill="red" fill-opacity="0.3"/></g><g pointer-events="all" display="none" transform="translate(101, 4.5)"><circle cx="8" cy="8" r="4" stroke="none" fill="red" fill-opacity="0.3"/></g><g pointer-events="all" display="none" transform="translate(101, 17)"><circle cx="8" cy="8" r="4" stroke="none" fill="red" fill-opacity="0.3"/></g><g pointer-events="all" display="none" transform="translate(101, 29.5)"><circle cx="8" cy="8" r="4" stroke="none" fill="red" fill-opacity="0.3"/></g><g pointer-events="all" display="none" transform="translate(19.500000000000004, -7)"><circle cx="8" cy="8" r="4" stroke="none" fill="red" fill-opacity="0.3"/></g><g pointer-events="all" display="none" transform="translate(47.00000000000001, -7)"><circle cx="8" cy="8" r="4" stroke="none" fill="red" fill-opacity="0.3"/></g><g pointer-events="all" display="none" transform="translate(74.5, -7)"><circle cx="8" cy="8" r="4" stroke="none" fill="red" fill-opacity="0.3"/></g><g pointer-events="all" display="none" transform="translate(47.00000000000001, 17)"><circle cx="8" cy="8" r="4" stroke="none" fill="red" fill-opacity="0.3"/></g></g></g></g></g><g class="edge"/></g><g class="controls"><g class="dockers"/><g class="magnets" transform="translate(10, 210)"><g pointer-events="all" display="none" transform="translate(387.5, 77.5)"><circle cx="8" cy="8" r="4" stroke="none" fill="red" fill-opacity="0.3"/></g></g></g></g></g><g class="edge"><g id="_64AC4720-FA09-4BA5-895D-C4A5B82ABF29" bpmn2nodeid="_C21FCBB6-5B81-43ED-A728-F142A36509DB"><g class="stencils"><g class="me"><g pointer-events="painted" bpmn2nodeid="_2A37766C-7079-401E-8229-DF120A874441"><path id="_64AC4720-FA09-4BA5-895D-C4A5B82ABF29_1" d="M110.5307301143397 103.50099129401096L188 106 L265.0546875 106 " stroke="#000000" fill="none" stroke-width="2" stroke-linecap="round" stroke-linejoin="round" marker-start="url(#_64AC4720-FA09-4BA5-895D-C4A5B82ABF29start)" marker-end="url(#_64AC4720-FA09-4BA5-895D-C4A5B82ABF29end)"/></g><text id="_64AC4720-FA09-4BA5-895D-C4A5B82ABF29text_name" font-size="12" x="124.5307301143397" y="89.50099129401096" oryx:edgePosition="startTop" stroke-width="0pt" letter-spacing="-0.01px" fill="#000000" text-anchor="start" transform="rotate(1.8476102659946037 110.5307301143397 103.50099129401096)" visibility="inherit" oryx:fontSize="12"/></g><g class="children" style="overflow:hidden"/><g class="edge"/></g><g class="controls"><g class="dockers"/><g class="magnets"/></g></g><g id="_73FE3FCE-340A-469D-A622-4F786E457131" bpmn2nodeid="_B1E9C93E-7A7F-44DB-B16B-8B5FF773D0D3"><g class="stencils"><g class="me"><g pointer-events="painted" bpmn2nodeid="_D7553C26-F44F-4B6B-B767-F3CCAB65AE6A"><path id="_73FE3FCE-340A-469D-A622-4F786E457131_1" d="M305.140625 106L374.234375 106 " stroke="#000000" fill="none" stroke-width="2" stroke-linecap="round" stroke-linejoin="round" marker-start="url(#_73FE3FCE-340A-469D-A622-4F786E457131start)" marker-end="url(#_73FE3FCE-340A-469D-A622-4F786E457131end)"/></g><text id="_73FE3FCE-340A-469D-A622-4F786E457131text_name" font-size="12" x="319.140625" y="92" oryx:edgePosition="startTop" stroke-width="0pt" letter-spacing="-0.01px" fill="#000000" text-anchor="start" transform="rotate(360 305.140625 106)" visibility="inherit" oryx:fontSize="12"/></g><g class="children" style="overflow:hidden"/><g class="edge"/></g><g class="controls"><g class="dockers"/><g class="magnets"/></g></g><g id="_12BD0C3E-DE56-4C34-B0FC-A49710FD945E" bpmn2nodeid="_CD0A34A8-D071-4738-8EC7-AC6AB84B2763"><g class="stencils"><g class="me"><g pointer-events="painted" bpmn2nodeid="_F306223D-7C22-403A-B0E0-EE61129D1D25"><path id="_12BD0C3E-DE56-4C34-B0FC-A49710FD945E_1" d="M545.984375 106L704.84765625 106 " stroke="#000000" fill="none" stroke-width="2" stroke-linecap="round" stroke-linejoin="round" marker-start="url(#_12BD0C3E-DE56-4C34-B0FC-A49710FD945Estart)" marker-end="url(#_12BD0C3E-DE56-4C34-B0FC-A49710FD945Eend)"/></g><text id="_12BD0C3E-DE56-4C34-B0FC-A49710FD945Etext_name" font-size="12" x="559.984375" y="92" oryx:edgePosition="startTop" stroke-width="0pt" letter-spacing="-0.01px" fill="#000000" text-anchor="start" transform="rotate(360 545.984375 106)" visibility="inherit" oryx:fontSize="12"/></g><g class="children" style="overflow:hidden"/><g class="edge"/></g><g class="controls"><g class="dockers"/><g class="magnets"/></g></g><g id="_0C8D31ED-EAAF-495E-830E-62F3EF9CB0B6" bpmn2nodeid="_0151CFC9-31E3-4B06-8BAC-077CE8CDAA28"><g class="stencils"><g class="me"><g pointer-events="painted" bpmn2nodeid="_5C11E88A-7BAF-4623-9BAF-4B6B304BE57E"><path id="_0C8D31ED-EAAF-495E-830E-62F3EF9CB0B6_1" d="M110.0625 290L219.15625 290 " stroke="#000000" fill="none" stroke-width="2" stroke-linecap="round" stroke-linejoin="round" marker-start="url(#_0C8D31ED-EAAF-495E-830E-62F3EF9CB0B6start)" marker-end="url(#_0C8D31ED-EAAF-495E-830E-62F3EF9CB0B6end)"/></g><text id="_0C8D31ED-EAAF-495E-830E-62F3EF9CB0B6text_name" font-size="12" x="124.0625" y="276" oryx:edgePosition="startTop" stroke-width="0pt" letter-spacing="-0.01px" fill="#000000" text-anchor="start" transform="rotate(360 110.0625 290)" visibility="inherit" oryx:fontSize="12"/></g><g class="children" style="overflow:hidden"/><g class="edge"/></g><g class="controls"><g class="dockers"/><g class="magnets"/></g></g><g id="_8228140A-58F0-4CB1-AB75-1CF383A2E4A8" bpmn2nodeid="_E9141CD8-78AA-475D-BE77-41BD05608DE1"><g class="stencils"><g class="me"><g pointer-events="painted" bpmn2nodeid="_A4414389-5285-44A8-BE38-8DCCD1B11964"><path id="_8228140A-58F0-4CB1-AB75-1CF383A2E4A8_1" d="M275 264.5625L275 198 L285 198 L285 125.6875 " stroke="#000000" fill="none" stroke-width="2" stroke-linecap="round" stroke-linejoin="round" marker-start="url(#_8228140A-58F0-4CB1-AB75-1CF383A2E4A8start)" marker-end="url(#_8228140A-58F0-4CB1-AB75-1CF383A2E4A8end)"/></g><text id="_8228140A-58F0-4CB1-AB75-1CF383A2E4A8text_name" font-size="12" x="289" y="250.5625" oryx:edgePosition="startTop" stroke-width="0pt" letter-spacing="-0.01px" fill="#000000" text-anchor="start" transform="rotate(270 275 264.5625)" visibility="inherit" oryx:fontSize="12"/></g><g class="children" style="overflow:hidden"/><g class="edge"/></g><g class="controls"><g class="dockers"/><g class="magnets"/></g></g></g><text id="_A0A3166A-5B6E-460D-B187-053234D68A58" style="stroke-width:1;fill:rgb(177,194,214);font-family:arial;font-weight:bold" font-size="12" onclick="ORYX.Plugins.CanvasTitle.openTextualAnalysis()" onmouseover="ORYX.Plugins.CanvasTitle.addToolTip('_A0A3166A-5B6E-460D-B187-053234D68A58')" transform="translate(10, 20)">produccion-multiples-documentos v.1.0 (proceso.produccion-multiples-documentos)</text></g></g></svg>